<svg width="28" height="28" viewBox="0 0 28 28" fill="none" xmlns="http://www.w3.org/2000/svg">
<path fill-rule="evenodd" clip-rule="evenodd" d="M14 24.6568C20.2822 24.6568 25.375 19.7248 25.375 13.6409C25.375 7.55698 20.2822 2.625 14 2.625C7.71776 2.625 2.625 7.55698 2.625 13.6409C2.625 16.9498 4.13147 19.918 6.51645 21.9372V24.1664C6.51645 25.0377 7.4039 25.6221 8.19515 25.2718L10.6689 24.1769C11.7224 24.4889 12.841 24.6568 14 24.6568Z" fill="url(#paint0_linear_1784_21145)"/>
<path d="M11.2761 11.2992L7.97758 15.8103C7.62391 16.294 8.25995 16.8751 8.74417 16.5107L11.5607 14.391C11.8474 14.1753 12.2493 14.1723 12.5394 14.3839L15.0443 16.2113C15.5247 16.5618 16.2113 16.461 16.5611 15.9886L20.0204 11.3173C20.3792 10.8328 19.7383 10.2471 19.2533 10.6162L16.2756 12.8832C15.9888 13.1014 15.5848 13.1055 15.2934 12.8929L12.7966 11.0715C12.3142 10.7196 11.6244 10.8228 11.2761 11.2992Z" fill="white"/>
<defs>
<linearGradient id="paint0_linear_1784_21145" x1="14" y1="2.625" x2="10.3501" y2="25.251" gradientUnits="userSpaceOnUse">
<stop stop-color="#00B1FF"/>
<stop offset="1" stop-color="#006BFF"/>
</linearGradient>
</defs>
</svg>
