<svg width="24" height="25" viewBox="0 0 24 25" fill="none" xmlns="http://www.w3.org/2000/svg">
<path d="M20 8.81641V18.5664C20 21.5664 18.21 22.5664 16 22.5664H8C5.79 22.5664 4 21.5664 4 18.5664V8.81641C4 5.56641 5.79 4.81641 8 4.81641C8 5.43641 8.24997 5.9964 8.65997 6.4064C9.06997 6.8164 9.63 7.06641 10.25 7.06641H13.75C14.99 7.06641 16 6.05641 16 4.81641C18.21 4.81641 20 5.56641 20 8.81641Z" stroke="#6D737A" stroke-width="1.5" stroke-linecap="round" stroke-linejoin="round"/>
<path d="M16 4.81641C16 6.05641 14.99 7.06641 13.75 7.06641H10.25C9.63 7.06641 9.06997 6.8164 8.65997 6.4064C8.24997 5.9964 8 5.43641 8 4.81641C8 3.57641 9.01 2.56641 10.25 2.56641H13.75C14.37 2.56641 14.93 2.81641 15.34 3.22641C15.75 3.63641 16 4.19641 16 4.81641Z" stroke="#6D737A" stroke-width="1.5" stroke-linecap="round" stroke-linejoin="round"/>
<path d="M8 13.5664H12" stroke="#6D737A" stroke-width="1.5" stroke-linecap="round" stroke-linejoin="round"/>
<path d="M8 17.5664H16" stroke="#6D737A" stroke-width="1.5" stroke-linecap="round" stroke-linejoin="round"/>
</svg>
