<svg width="28" height="28" viewBox="0 0 28 28" fill="none" xmlns="http://www.w3.org/2000/svg">
<path d="M28 0V28H0V0H28Z" fill="white" fill-opacity="0.01"/>
<path d="M25.568 13.4746C25.4591 10.4946 24.2034 7.67197 22.0629 5.59593C19.9223 3.51989 17.0626 2.35099 14.0808 2.33332H14.0245C12.0164 2.33182 10.0426 2.85316 8.2972 3.84602C6.55181 4.83889 5.09498 6.26906 4.07007 7.99583C3.04515 9.7226 2.48747 11.6865 2.45189 13.6942C2.41631 15.7019 2.90406 17.6842 3.86715 19.4463L2.8445 25.5658C2.84283 25.5783 2.84386 25.591 2.84752 25.6032C2.85116 25.6153 2.85736 25.6265 2.86569 25.6361C2.87401 25.6456 2.88427 25.6533 2.89578 25.6586C2.90729 25.6638 2.9198 25.6666 2.93246 25.6666H2.95005L9.00268 24.3203C10.5665 25.0711 12.2791 25.4607 14.0139 25.4602C14.1242 25.4602 14.2344 25.4602 14.3446 25.4602C15.8706 25.4167 17.3729 25.0713 18.7646 24.4441C20.1565 23.8169 21.4102 22.9203 22.4537 21.806C23.4972 20.6917 24.3096 19.3817 24.8441 17.9517C25.3786 16.5218 25.6246 15.0001 25.568 13.4746ZM14.2871 23.4489C14.1957 23.4489 14.1042 23.4489 14.0139 23.4489C12.4807 23.4508 10.9695 23.084 9.60783 22.3794L9.29822 22.2175L5.19355 23.1874L5.95115 19.0346L5.77524 18.7367C4.93505 17.3043 4.48249 15.6777 4.46215 14.017C4.44181 12.3565 4.85438 10.7192 5.65923 9.26656C6.46409 7.81391 7.63346 6.59599 9.05217 5.73272C10.4709 4.86945 12.09 4.39064 13.7501 4.34344C13.8423 4.34344 13.9349 4.34344 14.028 4.34344C16.5344 4.35086 18.9374 5.34259 20.7196 7.10496C22.5017 8.86731 23.5202 11.2593 23.5556 13.7653C23.5909 16.2715 22.6404 18.6912 20.9087 20.5031C19.177 22.3151 16.8028 23.3743 14.2977 23.4525L14.2871 23.4489Z" fill="#25D366"/>
<path d="M9.57902 8.40672C9.70956 8.34851 9.85044 8.31708 9.99332 8.31429L10.018 8.31077C10.2115 8.31664 10.405 8.3225 10.5739 8.33423L10.5751 8.33432C10.7801 8.34954 11.0141 8.36692 11.2107 8.86431C11.4534 9.44718 11.9707 10.9002 12.0398 11.048C12.0833 11.1255 12.1068 11.2126 12.1082 11.3015C12.1096 11.3903 12.089 11.4781 12.0481 11.557C11.969 11.7269 11.8663 11.8848 11.7431 12.026C11.593 12.1915 11.437 12.3826 11.2916 12.521C11.1461 12.6594 10.9867 12.8118 11.1461 13.1074C11.5588 13.8688 12.0821 14.5647 12.6989 15.1726C13.359 15.819 14.1343 16.3361 14.9846 16.6972C15.083 16.7487 15.1915 16.778 15.3024 16.7829C15.3626 16.7818 15.422 16.7681 15.4765 16.7426C15.531 16.7171 15.5796 16.6805 15.6191 16.6351C15.7997 16.4521 16.338 15.8176 16.5725 15.5256C16.6091 15.4657 16.6597 15.4155 16.72 15.3796C16.7803 15.3436 16.8484 15.3229 16.9185 15.3192C17.0261 15.3272 17.1314 15.3545 17.2293 15.4001C17.4932 15.5057 18.897 16.2562 19.1831 16.4063C19.4693 16.5564 19.6593 16.6409 19.7284 16.7582C19.7977 16.8755 19.7801 17.4619 19.5174 18.1327C19.2547 18.8035 18.0502 19.4204 17.5166 19.4532C17.3583 19.4626 17.207 19.4837 17.0065 19.4837C16.5198 19.4837 15.7692 19.3571 14.057 18.6193C11.1438 17.3681 9.37531 14.2825 9.23574 14.0843L9.23462 14.0827C9.09093 13.8787 8.09828 12.4691 8.14272 11.0445C8.18729 9.61606 8.9578 8.93585 9.2334 8.65322C9.33096 8.54876 9.44849 8.46494 9.57902 8.40672Z" fill="#25D366"/>
</svg>
