<svg width="24" height="25" viewBox="0 0 24 25" fill="none" xmlns="http://www.w3.org/2000/svg">
<path d="M22 12.2617V13.1517C22 16.7117 21.11 17.5917 17.56 17.5917H6.44C2.89 17.5917 2 16.7017 2 13.1517V6.8117C2 3.2617 2.89 2.3717 6.44 2.3717H8" stroke="#6D737A" stroke-width="1.5" stroke-linecap="round" stroke-linejoin="round"/>
<path d="M12 17.5917V22.3717" stroke="#6D737A" stroke-width="1.5" stroke-linecap="round" stroke-linejoin="round"/>
<path d="M2 13.3717H22" stroke="#6D737A" stroke-width="1.5" stroke-linecap="round" stroke-linejoin="round"/>
<path d="M7.5 22.3717H16.5" stroke="#6D737A" stroke-width="1.5" stroke-linecap="round" stroke-linejoin="round"/>
<path d="M17.8598 9.74171H13.0998C11.7198 9.74171 11.2598 8.82171 11.2598 7.90171V4.38171C11.2598 3.28171 12.1598 2.38171 13.2598 2.38171H17.8598C18.8798 2.38171 19.6998 3.20171 19.6998 4.22171V7.90171C19.6998 8.92171 18.8798 9.74171 17.8598 9.74171Z" stroke="#6D737A" stroke-width="1.5" stroke-linecap="round" stroke-linejoin="round"/>
<path d="M20.9102 8.29168L19.7002 7.44168V4.68168L20.9102 3.83168C21.5102 3.42168 22.0002 3.67168 22.0002 4.40168V7.73168C22.0002 8.46168 21.5102 8.71168 20.9102 8.29168Z" stroke="#6D737A" stroke-width="1.5" stroke-linecap="round" stroke-linejoin="round"/>
</svg>
