<svg width="60" height="60" viewBox="0 0 60 60" fill="none" xmlns="http://www.w3.org/2000/svg">
<rect width="60" height="60" rx="8" fill="white"/>
<path d="M39.9998 21.9334C39.8998 21.9167 39.7831 21.9167 39.6831 21.9334C37.3831 21.85 35.5498 19.9667 35.5498 17.6334C35.5498 15.25 37.4665 13.3334 39.8498 13.3334C42.2331 13.3334 44.1498 15.2667 44.1498 17.6334C44.1331 19.9667 42.2998 21.85 39.9998 21.9334Z" stroke="#FBA631" stroke-width="2" stroke-linecap="round" stroke-linejoin="round"/>
<path d="M38.2829 34.0667C40.5662 34.4501 43.0829 34.0501 44.8496 32.8667C47.1996 31.3001 47.1996 28.7334 44.8496 27.1667C43.0663 25.9834 40.5162 25.5834 38.2329 25.9834" stroke="#FBA631" stroke-width="2" stroke-linecap="round" stroke-linejoin="round"/>
<path d="M19.9498 21.9334C20.0498 21.9167 20.1665 21.9167 20.2665 21.9334C22.5665 21.85 24.3998 19.9667 24.3998 17.6334C24.3998 15.25 22.4831 13.3334 20.0998 13.3334C17.7165 13.3334 15.7998 15.2667 15.7998 17.6334C15.8165 19.9667 17.6498 21.85 19.9498 21.9334Z" stroke="#FBA631" stroke-width="2" stroke-linecap="round" stroke-linejoin="round"/>
<path d="M21.6666 34.0667C19.3832 34.4501 16.8666 34.0501 15.0999 32.8667C12.7499 31.3001 12.7499 28.7334 15.0999 27.1667C16.8832 25.9834 19.4332 25.5834 21.7166 25.9834" stroke="#FBA631" stroke-width="2" stroke-linecap="round" stroke-linejoin="round"/>
<path d="M30.0003 34.3833C29.9003 34.3667 29.7836 34.3667 29.6836 34.3833C27.3836 34.3 25.5503 32.4167 25.5503 30.0833C25.5503 27.7 27.467 25.7833 29.8503 25.7833C32.2336 25.7833 34.1503 27.7167 34.1503 30.0833C34.1336 32.4167 32.3003 34.3167 30.0003 34.3833Z" stroke="#FBA631" stroke-width="2" stroke-linecap="round" stroke-linejoin="round"/>
<path d="M25.1502 39.6333C22.8002 41.2 22.8002 43.7667 25.1502 45.3333C27.8169 47.1167 32.1835 47.1167 34.8502 45.3333C37.2002 43.7667 37.2002 41.2 34.8502 39.6333C32.2002 37.8667 27.8169 37.8667 25.1502 39.6333Z" stroke="#FBA631" stroke-width="2" stroke-linecap="round" stroke-linejoin="round"/>
</svg>
