<svg width="293" height="248" viewBox="0 0 293 248" fill="none" xmlns="http://www.w3.org/2000/svg">
<g clip-path="url(#clip0_1823_21781)">
<path d="M282.461 202.931H10.7354C4.92424 202.931 0.196289 198.203 0.196289 192.392V159.688H293V192.392C293 198.203 288.272 202.931 282.461 202.931Z" fill="#E6E6E6"/>
<path d="M181.766 197.461H112.472V246.956H181.766V197.461Z" fill="#E6E6E6"/>
<path d="M185.934 240.703H108.304V246.955H185.934V240.703Z" fill="#E6E6E6"/>
<path d="M292.74 173.494H0.196289V7.23248C0.196289 3.24457 3.44086 0 7.42877 0H285.507C289.495 0 292.74 3.24457 292.74 7.23248V173.494Z" fill="#3F3D56"/>
<path d="M285.706 7.55469H6.96948V164.377H285.706V7.55469Z" fill="white"/>
<path d="M60.95 101.026C63.0834 99.2627 65.7222 98.9346 66.8439 100.292C67.9655 101.65 67.1452 104.18 65.0108 105.943C64.1678 106.659 63.1657 107.163 62.0882 107.412L52.9546 114.767L49.5945 110.407L58.9553 103.619C59.4035 102.608 60.0875 101.718 60.95 101.026Z" fill="#FFB6B6"/>
<path d="M8.15884 117.62C8.15421 117.295 8.15726 114.457 10.2577 112.664C12.6706 110.604 16.0753 111.438 17.2695 111.73C20.0281 112.406 20.2543 113.589 22.8449 114.805C27.6916 117.08 21.6189 115.915 24.5028 115.186C25.501 114.934 39.8624 113.938 43.4372 111.737C50.3897 107.458 55.127 104.863 55.127 104.863L58.2238 111.057C58.2238 111.057 53.7458 117.284 47.4434 121.896C40.9785 126.628 37.7461 128.994 32.8337 129.908C32.4106 129.987 22.0065 131.763 13.6268 125.502C11.7155 124.074 8.21341 121.458 8.15884 117.62Z" fill="#E72929"/>
<path d="M17.7654 101.867C23.7235 101.867 28.5534 97.0372 28.5534 91.0791C28.5534 85.121 23.7235 80.291 17.7654 80.291C11.8073 80.291 6.97729 85.121 6.97729 91.0791C6.97729 97.0372 11.8073 101.867 17.7654 101.867Z" fill="#FFB6B6"/>
<path d="M102.254 163.558L91.1434 152.186L85.4082 158.168L93.6857 169.072L101.896 170.011L102.254 163.558Z" fill="#FFB6B6"/>
<path d="M38.8137 142.232C39.4636 142.286 41.5286 142.7 43.5025 141.614C44.8495 140.873 45.5404 139.771 45.7737 139.421C48.6685 135.073 59.7795 128.293 69.7513 127.876C72.0095 127.782 73.4959 128.043 74.8469 128.747C76.7626 129.746 77.5274 131.176 79.9584 134.527C81.2882 136.36 82.7595 138.087 84.1053 139.908C91.9842 150.571 94.9711 151.408 94.6658 154.826C94.3271 158.618 90.2368 162.217 87.5182 161.801C86.4049 161.631 85.9737 160.857 84.4862 159.29C80.1249 154.695 78.3204 155.544 75.2153 152.024C71.59 147.915 72.0646 144.508 70.1732 144.376C68.4192 144.254 67.6738 147.161 63.9292 151.022C62.2157 152.789 60.9956 153.599 57.2783 156.178C42.8024 166.221 42.5714 166.926 39.65 167.727C38.3718 168.078 29.3 170.565 26.0684 166.607C21.0112 160.413 32.9583 141.746 38.8137 142.232Z" fill="#2F2E41"/>
<path d="M98.8569 166.13C99.674 165.763 100.629 165.334 100.937 164.347C101.145 163.68 101.025 162.856 100.595 162.288C100.099 161.631 99.3648 161.545 99.3945 161.429C99.4397 161.252 101.176 161.321 103.082 161.995C103.442 162.122 105.071 162.717 107.144 164.335C108.804 165.632 108.581 165.892 109.622 166.639C112.819 168.934 115.817 167.125 117.546 169.277C118.214 170.108 118.498 171.287 118.218 172.24C117.653 174.155 114.91 174.814 113.411 175.154C109.8 175.973 107.066 175.305 104.212 174.824C94.5064 173.188 89.053 174.678 88.3231 172.429C88.185 172.004 88.4094 172.04 89.1577 168.917C89.8964 165.834 89.8721 164.988 90.5012 164.741C91.4481 164.369 92.0839 166.06 94.4693 166.638C96.5832 167.151 98.3274 166.367 98.8569 166.13Z" fill="#2F2E41"/>
<path d="M82.5014 200.762L79.6943 185.113L71.5894 186.843L72.3154 200.514L78.5819 205.901L82.5014 200.762Z" fill="#FFB6B6"/>
<path d="M41.9834 147.492C42.4908 147.902 43.9672 149.404 46.2103 149.614C47.7411 149.757 48.9315 149.233 49.3214 149.074C54.1581 147.102 67.159 147.731 75.6444 152.986C77.566 154.176 78.649 155.227 79.3715 156.568C80.3959 158.47 80.2255 160.083 80.3553 164.221C80.4264 166.484 80.6742 168.739 80.7651 171.002C81.2972 184.249 83.2987 186.619 81.1266 189.276C78.7167 192.224 73.3116 192.904 71.2954 191.034C70.4697 190.268 70.5476 189.385 70.1969 187.253C69.1684 181.002 67.1986 180.691 66.6056 176.035C65.9134 170.599 68.2193 168.047 66.7282 166.876C65.3453 165.79 63.0964 167.776 57.8297 168.868C55.4197 169.368 53.955 169.354 49.431 169.4C31.8136 169.581 31.2262 170.035 28.3591 169.058C27.1047 168.63 18.2016 165.594 17.7501 160.504C17.0436 152.539 37.4115 143.802 41.9834 147.492Z" fill="#2F2E41"/>
<path d="M78.2477 200.981C79.1299 201.136 80.1614 201.318 80.9697 200.674C81.5167 200.239 81.8798 199.49 81.8434 198.778C81.8015 197.957 81.2425 197.473 81.3323 197.393C81.469 197.272 82.8668 198.304 84.0656 199.932C84.2918 200.239 85.3057 201.647 86.1121 204.15C86.7582 206.155 86.4273 206.245 86.8692 207.448C88.2256 211.141 91.7219 211.329 91.9447 214.08C92.0307 215.142 91.6041 216.278 90.8363 216.909C89.2943 218.177 86.6543 217.181 85.2226 216.621C81.7746 215.271 79.8885 213.183 77.797 211.182C70.6843 204.379 65.3354 202.549 65.9941 200.278C66.1188 199.849 66.2841 200.005 68.6571 197.841C70.9991 195.705 71.4544 194.991 72.1135 195.14C73.1057 195.364 72.6828 197.12 74.3318 198.938C75.793 200.549 77.6761 200.88 78.2477 200.981Z" fill="#2F2E41"/>
<path d="M19.2361 93.1419C19.6561 91.6395 19.1286 91.092 19.6662 90.4177C19.6662 90.4177 19.8826 90.1463 21.8169 89.414C21.2462 86.1027 21.6735 85.5428 21.6735 85.5428C22.166 84.8975 23.1526 84.7415 23.8242 84.8259C25.2447 85.0044 25.4961 86.2885 26.405 86.2597C27.6606 86.2199 29.1665 83.7066 28.6991 81.5282C28.3178 79.7513 26.6738 78.4316 26.2617 78.6606C25.853 78.8877 24.3821 77.8865 23.8242 78.0871C23.4432 78.2241 21.65 78.0419 21.2434 78.2305C20.7994 78.4365 19.5277 79.7192 19.4061 79.5576C18.5613 78.4345 18.5792 78.0424 18.0891 77.8004C17.2205 77.3715 16.2762 78.1642 14.648 78.9474C11.2979 80.5588 10.3169 79.5976 8.76947 80.9547C7.98778 81.6402 7.56861 82.9504 6.76216 85.5428C5.63436 89.1682 5.07047 90.9809 5.61514 92.7117C6.1706 94.4768 6.9886 94.0927 8.19595 96.583C9.53992 99.3551 9.07671 100.966 10.3466 101.601C11.3281 102.092 12.9054 101.78 13.501 100.884C14.5206 99.3515 11.8852 97.278 12.7841 94.8624C13.3358 93.3796 15.038 92.2553 16.0818 92.5683C17.262 92.9223 17.3489 95.0385 18.0891 95.0058C18.7229 94.9777 19.1629 93.4037 19.2361 93.1419Z" fill="#2F2E41"/>
<path d="M11.0636 103.466C13.2712 100.991 22.2633 103.553 23.1074 107.481C23.4545 109.096 22.1729 109.778 22.5338 111.639C23.0617 114.359 26.0505 114.174 28.269 116.944C31.4186 120.876 28.1739 124.719 31.7101 131.281C32.4657 132.684 33.1026 133.865 34.4343 135.009C37.4901 137.634 40.334 136.734 41.89 139.167C43.0535 140.987 42.5755 143.23 42.4635 143.755C42.0043 145.91 40.7596 146.435 39.8827 148.2C38.4235 151.137 40.0756 153.294 40.1694 156.803C40.2868 161.193 37.9535 167.28 33.2872 169.277C28.0449 171.52 21.7222 167.804 18.6626 164.115C16.837 161.914 16.307 159.883 15.5083 157.376C11.9387 146.174 9.92209 147.187 7.19234 138.307C4.07173 128.155 3.45825 116.262 7.19234 112.499C7.68727 112 9.04934 110.847 9.91653 108.771C11.0834 105.977 10.0753 104.574 11.0636 103.466Z" fill="#E72929"/>
<path d="M43.6835 161.087C45.3951 163.262 45.6604 165.908 44.2763 166.997C42.8921 168.086 40.383 167.206 38.6711 165.03C37.9753 164.17 37.4956 163.156 37.272 162.073L30.1362 152.768L33.8234 149.955L41.1379 159.032C42.1385 159.504 43.0114 160.209 43.6835 161.087Z" fill="#FFB6B6"/>
<path d="M17.5499 112.899C17.8674 112.828 20.6456 112.253 22.8298 113.943C25.3388 115.885 25.2172 119.388 25.1746 120.617C25.0761 123.455 23.9638 123.918 23.3021 126.702C22.0641 131.911 24.4218 136.752 25.7243 139.426C26.1752 140.352 27.6237 143.185 30.5071 146.235C36.1148 152.168 41.1184 155.29 41.1184 155.29L35.7432 160.068C35.7432 160.068 27.181 157.459 21.3793 152.23C15.4281 146.867 6.27616 127.89 4.37894 123.268C4.21556 122.87 6.52991 129.342 10.9489 119.861C11.9568 117.698 13.8036 113.736 17.5499 112.899Z" fill="#E72929"/>
<path d="M155.124 108.446L148.706 105.406C151.339 109.08 153.607 114.817 154.821 119.383C156.877 115.13 160.192 109.926 163.472 106.818L156.689 108.563C160.869 88.0786 176.59 73.3727 194.593 73.3727L194.847 72.6328C176.043 72.6328 159.392 87.1348 155.124 108.446Z" fill="#3F3D56"/>
<path d="M184.664 139.659H144.112C142.393 139.659 140.993 138.259 140.993 136.539C140.993 134.819 142.393 133.42 144.112 133.42H184.664C186.384 133.42 187.783 134.819 187.783 136.539C187.783 138.259 186.384 139.659 184.664 139.659Z" fill="#E72929"/>
<path d="M238.622 139.659H198.071C196.351 139.659 194.952 138.259 194.952 136.539C194.952 134.819 196.351 133.42 198.071 133.42H238.622C240.342 133.42 241.741 134.819 241.741 136.539C241.741 138.259 240.342 139.659 238.622 139.659Z" fill="#E6E6E6"/>
<path d="M214.616 54.8016H175.199C174.205 54.8016 173.396 53.993 173.396 52.9992C173.396 52.0055 174.205 51.1973 175.199 51.1973H214.616C215.61 51.1973 216.418 52.0055 216.418 52.9992C216.418 53.993 215.61 54.8016 214.616 54.8016Z" fill="#3F3D56"/>
<path d="M235.768 74.0301H154.047C153.053 74.0301 152.244 73.2215 152.244 72.2278C152.244 71.234 153.053 70.4258 154.047 70.4258H235.768C236.762 70.4258 237.57 71.234 237.57 72.2278C237.57 73.2215 236.762 74.0301 235.768 74.0301Z" fill="#3F3D56"/>
<path d="M17.9148 247.416C17.9148 247.74 18.1748 247.999 18.4986 247.999H274.698C275.022 247.999 275.282 247.74 275.282 247.416C275.282 247.092 275.022 246.832 274.698 246.832H18.4986C18.1748 246.832 17.9148 247.092 17.9148 247.416Z" fill="#3F3D56"/>
<path d="M80.8243 109.043C80.7549 109.043 80.6856 109.04 80.6158 109.036C76.5106 108.772 62.4637 106.785 54.0779 92.2851C53.3868 91.0913 53.523 89.5736 54.4164 88.5088L69.9467 70.0052C70.5818 69.2485 71.5628 68.8125 72.5565 68.8245C73.2432 68.8408 74.8691 69.0143 75.185 70.2677C77.0506 77.673 84.9284 86.3801 94.4026 87.5343C95.363 87.651 96.1339 88.5077 96.4648 89.8259C96.7229 90.8521 96.4844 91.9099 95.81 92.728L83.369 107.835C82.737 108.603 81.8096 109.043 80.8243 109.043ZM72.4968 69.5688C71.7379 69.5688 70.9998 69.9088 70.5172 70.4837L54.9871 88.9874C54.294 89.8132 54.1879 90.9884 54.7224 91.912C62.9233 106.092 76.6516 108.035 80.6638 108.292C81.483 108.347 82.2697 107.998 82.7941 107.362L95.2353 92.2546C95.7577 91.6208 95.9424 90.8019 95.7426 90.0074C95.5473 89.2296 95.069 88.3656 94.3124 88.2732C84.5252 87.0812 76.3886 78.0934 74.4628 70.4495C74.3068 69.8306 73.3677 69.5888 72.541 69.5692C72.5263 69.5688 72.5115 69.5688 72.4968 69.5688Z" fill="#3F3D56"/>
<path d="M63.4893 92.8954L74.6859 81.4792C75.4513 80.6988 74.2522 79.4978 73.4859 80.2792L62.2893 91.6954C61.5239 92.4758 62.723 93.6768 63.4893 92.8954Z" fill="#E6E6E6"/>
<path d="M70.2471 96.1121C73.3373 93.3424 76.0226 90.1354 78.2214 86.6165C78.8018 85.6876 77.3341 84.8348 76.756 85.76C74.6302 89.162 72.0342 92.2347 69.0471 94.912C68.2321 95.6425 69.4356 96.8395 70.2471 96.1121Z" fill="#E6E6E6"/>
<path d="M76.3378 99.9619C79.1513 96.8453 81.5462 93.367 83.4316 89.615C83.9208 88.6417 82.4572 87.7814 81.9662 88.7585C80.1445 92.3836 77.8567 95.75 75.1378 98.7618C74.4076 99.5707 75.6041 100.775 76.3378 99.9619Z" fill="#E6E6E6"/>
<path d="M71.5409 79.4097C77.7753 79.4097 82.8293 74.4622 82.8293 68.3592C82.8293 62.2561 77.7753 57.3086 71.5409 57.3086C65.3064 57.3086 60.2524 62.2561 60.2524 68.3592C60.2524 74.4622 65.3064 79.4097 71.5409 79.4097Z" fill="#E72929"/>
<path d="M77.4146 73.6011C75.6785 69.3326 73.9423 65.0642 72.2062 60.7957C71.9665 60.2062 71.2153 60.1853 70.9813 60.7957C69.2659 65.2709 68.145 69.9405 67.6061 74.7016C67.5143 75.5126 68.7853 75.506 68.8763 74.7016C69.0872 72.8385 69.4003 70.9893 69.8022 69.1598C71.2328 69.2349 72.6751 69.0744 74.0557 68.6922C74.767 70.441 75.4784 72.1899 76.1897 73.9388C76.4936 74.6861 77.723 74.3593 77.4146 73.6011ZM70.0903 67.904C70.5181 66.1526 71.0311 64.422 71.6263 62.7192L73.5732 67.5059C72.4329 67.8052 71.2666 67.9384 70.0903 67.904Z" fill="white"/>
</g>
<defs>
<clipPath id="clip0_1823_21781">
<rect width="292.804" height="248" fill="white" transform="translate(0.196289)"/>
</clipPath>
</defs>
</svg>
