<svg width="371" height="248" viewBox="0 0 371 248" fill="none" xmlns="http://www.w3.org/2000/svg">
<g clip-path="url(#clip0_1823_21713)">
<path d="M66.5197 191.414C65.9962 190.532 63.7317 191.477 63.3153 190.676C62.9005 189.878 65.0045 188.662 66.2066 185.883C66.4234 185.382 67.7894 182.225 66.7782 181.251C64.8613 179.404 56.0896 187.025 53.0199 184.531C52.3462 183.984 51.8756 182.891 49.8367 181.117C49.0256 180.412 48.5351 180.093 48.0604 180.212C47.3869 180.38 47.3335 181.281 46.6113 183.054C45.5281 185.712 44.8875 185.551 44.2564 187.672C43.7879 189.246 43.895 190.162 43.3437 190.34C42.5636 190.592 41.8455 188.923 40.8569 189.072C39.848 189.225 39.2381 191.169 39.0454 192.625C38.6839 195.356 39.6871 197.159 40.2432 199.054C40.8474 201.114 41.206 204.247 39.8106 208.681L25.9988 247.596C29.048 239.611 37.877 217.722 41.5869 209.587C42.6579 207.239 43.8404 204.857 46.2685 203.917C48.6061 203.012 51.8166 203.552 55.9096 202.566C56.3876 202.451 57.7141 202.114 57.8811 201.334C58.0191 200.689 57.2389 200.328 57.3587 199.724C57.5195 198.914 59.0539 198.904 60.9394 197.969C62.269 197.31 63.0973 196.526 63.8096 195.852C64.0244 195.648 67.2165 192.589 66.5197 191.414Z" fill="#F2F2F2"/>
<path d="M12.1801 211.902C11.5959 211.904 11.4063 213.288 10.893 213.261C10.3816 213.235 10.3918 211.851 9.3751 210.459C9.19176 210.209 8.03634 208.627 7.2664 208.842C5.80701 209.25 7.01623 215.754 4.90657 216.541C4.4436 216.714 3.77157 216.63 2.31269 217.119C1.73231 217.313 1.43443 217.462 1.35564 217.729C1.24385 218.108 1.67088 218.395 2.33241 219.261C3.32451 220.559 3.06088 220.827 3.91966 221.749C4.55718 222.433 5.03729 222.645 4.96574 222.967C4.86451 223.422 3.83775 223.293 3.62588 223.821C3.40969 224.36 4.18796 225.221 4.84684 225.735C6.0833 226.701 7.25747 226.729 8.3482 227.003C9.53353 227.301 11.1745 228.028 12.9484 229.993L28.063 248C25.0236 244.199 16.8274 233.55 13.9055 229.382C13.062 228.179 12.2342 226.911 12.4734 225.449C12.7037 224.04 13.8952 222.62 14.5922 220.327C14.6736 220.059 14.8907 219.311 14.556 219.004C14.2792 218.75 13.8774 219.029 13.6154 218.796C13.2641 218.483 13.7019 217.727 13.7871 216.532C13.8472 215.689 13.7014 215.056 13.576 214.512C13.5382 214.348 12.9579 211.899 12.1801 211.902Z" fill="#F2F2F2"/>
<path d="M23.8356 214.517L23.4836 211.375L23.6445 211.137C24.3887 210.035 24.768 208.959 24.7725 207.938C24.7733 207.776 24.7657 207.614 24.7581 207.448C24.7278 206.793 24.6899 205.978 25.1147 205.028C25.3529 204.499 26.022 203.273 27.028 203.425C27.2988 203.462 27.5036 203.587 27.6592 203.733C27.6819 203.696 27.7054 203.66 27.7305 203.62C28.0438 203.142 28.2918 202.937 28.5308 202.74C28.7144 202.588 28.9041 202.432 29.2014 202.062C29.3319 201.9 29.4336 201.757 29.5193 201.637C29.7795 201.275 30.1194 200.842 30.7187 200.85C31.359 200.88 31.6943 201.41 31.9166 201.76C32.3134 202.385 32.4931 202.836 32.6123 203.135C32.6555 203.244 32.7048 203.367 32.7298 203.405C32.9362 203.708 34.6136 203.424 35.2455 203.321C36.6649 203.085 37.8931 202.88 38.3991 203.775C38.7618 204.415 38.4924 205.262 37.5745 206.359C37.2885 206.7 36.9843 206.96 36.7142 207.163C36.938 207.297 37.1382 207.501 37.2194 207.823C37.4106 208.585 36.7559 209.348 35.2743 210.094C34.9064 210.281 34.411 210.53 33.7168 210.65C33.3899 210.706 33.0955 210.72 32.8437 210.727C32.8383 210.873 32.8042 211.031 32.7154 211.193C32.4552 211.671 31.9136 211.898 31.0973 211.844C30.1991 211.797 29.4594 211.625 28.807 211.475C28.2373 211.345 27.7464 211.234 27.361 211.26C26.6464 211.317 26.0956 211.889 25.4493 212.631L23.8356 214.517Z" fill="#F2F2F2"/>
<path d="M25.4687 195.809L22.5185 196.947L22.2473 196.851C20.993 196.411 19.8563 196.317 18.8674 196.571C18.7102 196.612 18.5551 196.66 18.397 196.71C17.7707 196.905 16.9922 197.149 15.9657 196.979C15.393 196.883 14.0375 196.546 13.9291 195.535C13.8971 195.263 13.9655 195.033 14.0669 194.846C14.0259 194.833 13.9847 194.82 13.9402 194.806C13.3984 194.624 13.1374 194.436 12.886 194.255C12.6926 194.116 12.4934 193.972 12.0598 193.778C11.8697 193.693 11.7059 193.631 11.5683 193.578C11.1515 193.419 10.647 193.199 10.5023 192.618C10.3693 191.991 10.7964 191.532 11.0791 191.228C11.5831 190.686 11.9734 190.398 12.2323 190.207C12.327 190.137 12.4334 190.058 12.4637 190.024C12.7049 189.748 12.005 188.197 11.7449 187.612C11.1559 186.299 10.6463 185.163 11.3838 184.447C11.9112 183.933 12.7985 183.979 14.0924 184.589C14.4952 184.779 14.8233 185.007 15.0885 185.217C15.1609 184.967 15.3082 184.721 15.5988 184.561C16.287 184.183 17.1913 184.623 18.2892 185.866C18.563 186.175 18.9294 186.591 19.2214 187.232C19.3586 187.534 19.4465 187.815 19.5178 188.057C19.66 188.025 19.8213 188.018 20.0008 188.063C20.5291 188.193 20.8867 188.66 21.0409 189.463C21.2232 190.344 21.245 191.103 21.2652 191.772C21.2835 192.356 21.3009 192.859 21.4236 193.225C21.6606 193.902 22.3536 194.29 23.2352 194.727L25.4687 195.809Z" fill="#F2F2F2"/>
<path d="M23.8356 186.552L23.4836 183.41L23.6445 183.172C24.3887 182.07 24.768 180.995 24.7725 179.974C24.7733 179.811 24.7657 179.649 24.7581 179.483C24.7278 178.828 24.6899 178.013 25.1147 177.063C25.3529 176.534 26.022 175.308 27.028 175.46C27.2988 175.498 27.5036 175.622 27.6592 175.768C27.6819 175.731 27.7054 175.695 27.7305 175.655C28.0438 175.177 28.2918 174.973 28.5308 174.775C28.7144 174.624 28.9041 174.467 29.2014 174.097C29.3319 173.935 29.4336 173.792 29.5193 173.672C29.7795 173.31 30.1194 172.877 30.7187 172.885C31.359 172.915 31.6943 173.445 31.9166 173.795C32.3134 174.42 32.4931 174.871 32.6123 175.17C32.6555 175.279 32.7048 175.402 32.7298 175.44C32.9362 175.743 34.6136 175.46 35.2455 175.356C36.6649 175.12 37.8931 174.915 38.3991 175.81C38.7618 176.45 38.4924 177.297 37.5745 178.394C37.2885 178.735 36.9843 178.995 36.7142 179.198C36.938 179.332 37.1382 179.537 37.2194 179.858C37.4106 180.62 36.7559 181.383 35.2743 182.13C34.9064 182.316 34.411 182.565 33.7168 182.685C33.3899 182.741 33.0955 182.755 32.8437 182.762C32.8383 182.908 32.8042 183.066 32.7154 183.228C32.4552 183.706 31.9136 183.934 31.0973 183.879C30.1991 183.832 29.4594 183.66 28.807 183.51C28.2373 183.38 27.7464 183.269 27.361 183.295C26.6464 183.352 26.0956 183.924 25.4493 184.666L23.8356 186.552Z" fill="#F2F2F2"/>
<path d="M27.0508 247.546L26.3923 247.134L25.6246 247.222C25.6124 247.15 25.5707 246.986 25.5078 246.73C25.1641 245.325 24.1164 241.049 23.2425 234.316C22.6325 229.615 22.2874 224.783 22.216 219.95C22.1447 215.11 22.3738 211.446 22.5574 208.501C22.6963 206.28 22.8647 204.165 23.0301 202.104C23.4701 196.6 23.885 191.4 23.5763 185.643C23.508 184.358 23.3646 181.683 21.8018 178.837C20.8953 177.186 19.6466 175.721 18.0898 174.482L19.0579 173.266C20.7761 174.634 22.1576 176.258 23.1643 178.091C24.897 181.246 25.0533 184.161 25.1284 185.562C25.4425 191.42 25.023 196.669 24.5784 202.227C24.4145 204.28 24.2461 206.386 24.1081 208.598C23.926 211.516 23.6992 215.148 23.7697 219.926C23.8395 224.701 24.1809 229.474 24.7825 234.115C25.6458 240.764 26.6783 244.976 27.0174 246.36C27.198 247.099 27.2359 247.253 27.0508 247.546Z" fill="#F2F2F2"/>
<path d="M15.2406 176.95C15.1769 176.95 15.1124 176.949 15.0472 176.944C13.7241 176.873 12.4989 176.081 11.405 174.591C10.8922 173.89 10.6297 173.09 10.1062 171.496C10.025 171.25 9.63054 170.003 9.39081 168.287C9.23377 167.166 9.2535 166.697 9.47578 166.283C9.72234 165.821 10.1214 165.5 10.5705 165.283C10.5508 165.134 10.5667 164.981 10.6312 164.824C10.8959 164.177 11.6 164.262 11.9808 164.303C12.1735 164.327 12.414 164.359 12.6734 164.345C13.0816 164.325 13.3008 164.204 13.6331 164.022C13.951 163.847 14.3462 163.63 14.9326 163.51C16.0888 163.269 17.0576 163.597 17.3769 163.705C19.0573 164.265 19.8857 165.571 20.8446 167.084C21.0358 167.387 21.692 168.492 22.1252 170.006C22.4377 171.098 22.3938 171.584 22.2997 171.945C22.1085 172.687 21.6571 173.112 20.5108 174.049C19.3137 175.031 18.7129 175.523 18.197 175.822C16.9961 176.515 16.242 176.95 15.2406 176.95Z" fill="#F2F2F2"/>
<path d="M362.418 246.839C362.418 247.127 362.185 247.36 361.897 247.36H0.93457V246.318H361.897C362.185 246.318 362.418 246.552 362.418 246.839Z" fill="#E6E6E6"/>
<path d="M258.213 82.2089C258.213 82.2089 238.783 84.5458 242.06 69.1833C245.338 53.8208 263.921 25.4453 263.921 25.4453L274.466 31.3592L262.359 59.9769L267.571 64.0886L258.213 82.2089Z" fill="#A0616A"/>
<path d="M321.886 63.5053L319.148 86.0237L250.54 85.6877L264.32 61.7402L321.886 63.5053Z" fill="#FBA631"/>
<path d="M281.115 26.6413C285.313 20.7776 285.65 13.8282 281.867 11.1194C278.084 8.41064 271.614 10.9682 267.415 16.832C263.216 22.6957 262.88 29.6451 266.663 32.3539C270.446 35.0627 276.916 32.505 281.115 26.6413Z" fill="#A0616A"/>
<path d="M315.289 149.359V247.086H319.501V149.359H315.289Z" fill="#3F3D56"/>
<path d="M295.07 149.359V247.086H299.282V149.359H295.07Z" fill="#3F3D56"/>
<path d="M181.757 87.8588V247.086H185.97V87.8588H181.757Z" fill="#E6E6E6"/>
<path d="M249.576 149.359V247.086H253.789V149.359H249.576Z" fill="#3F3D56"/>
<path d="M233.457 149.359V247.086H237.669V149.359H233.457Z" fill="#3F3D56"/>
<path d="M311.498 147.252H230.153L214.549 169.386L295.491 174.211L311.498 147.252Z" fill="#3F3D56"/>
<path d="M162.547 71.5262L162.917 55.4746L113.822 59.2509L113.571 70.1277L162.547 71.5262Z" fill="#A0616A"/>
<path d="M129.32 57.3328L126.972 62.982L123.6 63.0897C123.6 63.0897 127.548 64.2988 128.645 71.4736L125.405 72.4449C125.405 72.4449 122.293 75.348 116.476 75.0664L100.88 73.7618L100.82 68.3248L111.6 67.0791C111.6 67.0791 114.001 65.4989 102.111 59.0024C102.111 59.0024 98.1728 56.5939 101.715 44.7001C102.202 43.0654 103.673 41.8913 105.378 41.8544C106.319 41.834 107.201 42.1721 107.553 43.341C108.449 46.3165 107.542 49.2828 110.005 51.1401C112.467 52.9975 129.32 57.3328 129.32 57.3328Z" fill="#2F2E41"/>
<path d="M305.41 132.892C305.41 132.892 288.471 161.702 250.14 156.51C241.019 155.275 232.994 149.851 228.422 141.862C219.585 126.421 206.166 99.3829 210.516 84.073L145.688 71.7001L140.58 55.956L210.741 46.8421C216.947 46.0359 223.026 49.0538 226.136 54.4846L260.313 114.171L270.501 115.283L305.41 132.892Z" fill="#2F2E41"/>
<path d="M163.827 78.0956L162.904 62.0664L114.272 69.7802L114.897 80.642L163.827 78.0956Z" fill="#A0616A"/>
<path d="M129.566 66.6217L127.68 72.4415L124.327 72.8201C124.327 72.8201 128.36 73.7076 130.03 80.7709L126.879 81.9997C126.879 81.9997 124.011 85.1438 118.19 85.3311L102.54 85.2854L102.042 79.8709L112.686 77.762C112.686 77.762 114.953 75.9938 102.579 70.4749C102.579 70.4749 98.4596 68.391 101.034 56.2508C101.387 54.5822 102.759 53.2936 104.456 53.1196C105.392 53.0236 106.298 53.2896 106.743 54.4265C107.876 57.3202 107.211 60.3498 109.815 62.003C112.419 63.6563 129.566 66.6217 129.566 66.6217Z" fill="#2F2E41"/>
<path d="M311.164 127.769C311.164 127.769 296.597 157.849 257.973 155.757C248.782 155.26 240.346 150.5 235.146 142.904C225.096 128.224 209.545 102.353 212.65 86.7429L147.036 79.6257L140.678 64.3435L209.878 49.6146C215.999 48.3117 222.302 50.8308 225.838 55.9937L264.706 112.737L274.951 113.026L311.164 127.769Z" fill="#2F2E41"/>
<path d="M266.761 0.748047L263.391 3.27546L281.083 27.7071L284.452 26.8647L266.761 0.748047Z" fill="#3F3D56"/>
<path d="M312.762 55.0026L332.139 54.1602L340.563 92.0714C340.563 92.0714 322.871 158.627 301.81 156.099C301.81 156.099 288.751 146.411 288.751 143.041C288.751 139.671 271.059 131.246 271.059 131.246L266.847 116.924L279.484 97.5475C279.484 97.5475 284.539 82.383 301.388 73.9583L312.762 55.0026Z" fill="#FBA631"/>
<path d="M201.977 84.4883H29.6912V88.7006H113.938V247.085H118.151V88.7006H201.977V84.4883Z" fill="#E6E6E6"/>
<path d="M322.871 51.6321C335.434 51.6321 345.618 41.4481 345.618 28.8854C345.618 16.3227 335.434 6.13867 322.871 6.13867C310.309 6.13867 300.125 16.3227 300.125 28.8854C300.125 41.4481 310.309 51.6321 322.871 51.6321Z" fill="#A0616A"/>
<path d="M243.56 57.9492L227.672 64.2678L258.844 105.549L269.796 97.1242L243.56 57.9492Z" fill="#E6E6E6"/>
<path d="M305.601 137.143C305.601 137.143 299.703 155.803 287.066 146.473C274.429 137.143 256.263 108.499 256.263 108.499L266.004 101.338L287.066 124.184L292.964 121.136L305.601 137.143Z" fill="#A0616A"/>
<path d="M314.868 71.4297L334.245 83.2243L305.601 145.567L287.066 120.293L314.868 71.4297Z" fill="#FBA631"/>
<path d="M263.688 108.855C267.717 106.528 268.06 99.579 264.454 93.3333C260.848 87.0876 254.659 83.9104 250.629 86.2369C246.6 88.5633 246.256 95.5124 249.862 101.758C253.468 108.004 259.658 111.181 263.688 108.855Z" fill="#A0616A"/>
<path d="M325.359 97.7554C331.197 78.6169 337.462 72.5603 344.048 76.3523C349.062 79.2386 350.571 85.8084 347.633 90.7916C340.143 103.494 324.711 132.597 327.926 151.886C327.926 151.886 332.981 178.845 292.542 178.845C252.104 178.845 213.35 169.578 213.35 169.578L234.412 166.208L282.309 169.629C293.252 170.411 302.475 161.047 301.013 150.174C300.965 149.815 300.908 149.452 300.841 149.085C298.44 135.879 325.359 97.7554 325.359 97.7554Z" fill="#3F3D56"/>
<path d="M314.346 19.4553C312.488 24.6582 316.571 30.0608 322.083 29.6933L322.215 29.6845C325.92 34.3166 326.023 40.869 322.464 45.6146C322.171 51.731 323.129 57.8428 325.279 63.5764L331.32 79.6856L340.62 75.3456L345.034 87.1256L371 73.7489L355.263 38.34L350.46 19.1298C347.044 5.46254 333.102 -2.764 319.486 0.852674L309.04 3.62745C300.787 5.8196 296.037 14.4601 298.609 22.6028L314.346 19.4553Z" fill="#2F2E41"/>
</g>
<defs>
<clipPath id="clip0_1823_21713">
<rect width="370.066" height="248" fill="white" transform="translate(0.934326)"/>
</clipPath>
</defs>
</svg>
