<svg width="20" height="20" viewBox="0 0 20 20" fill="none" xmlns="http://www.w3.org/2000/svg">
<path d="M10 12.5C11.3807 12.5 12.5 11.3807 12.5 10C12.5 8.6193 11.3807 7.50002 10 7.50002C8.61929 7.50002 7.5 8.6193 7.5 10C7.5 11.3807 8.61929 12.5 10 12.5Z" stroke="#6D737A" stroke-width="1.5" stroke-miterlimit="10" stroke-linecap="round" stroke-linejoin="round"/>
<path d="M1.66699 10.7333V9.26668C1.66699 8.40001 2.37533 7.68335 3.25033 7.68335C4.75866 7.68335 5.37533 6.61668 4.61699 5.30835C4.18366 4.55835 4.44199 3.58335 5.20033 3.15001L6.64199 2.32501C7.30033 1.93335 8.15033 2.16668 8.54199 2.82501L8.63366 2.98335C9.38366 4.29168 10.617 4.29168 11.3753 2.98335L11.467 2.82501C11.8587 2.16668 12.7087 1.93335 13.367 2.32501L14.8087 3.15001C15.567 3.58335 15.8253 4.55835 15.392 5.30835C14.6337 6.61668 15.2503 7.68335 16.7587 7.68335C17.6253 7.68335 18.342 8.39168 18.342 9.26668V10.7333C18.342 11.6 17.6337 12.3167 16.7587 12.3167C15.2503 12.3167 14.6337 13.3833 15.392 14.6917C15.8253 15.45 15.567 16.4167 14.8087 16.85L13.367 17.675C12.7087 18.0667 11.8587 17.8333 11.467 17.175L11.3753 17.0167C10.6253 15.7083 9.39199 15.7083 8.63366 17.0167L8.54199 17.175C8.15033 17.8333 7.30033 18.0667 6.64199 17.675L5.20033 16.85C4.44199 16.4167 4.18366 15.4417 4.61699 14.6917C5.37533 13.3833 4.75866 12.3167 3.25033 12.3167C2.37533 12.3167 1.66699 11.6 1.66699 10.7333Z" stroke="#6D737A" stroke-width="1.5" stroke-miterlimit="10" stroke-linecap="round" stroke-linejoin="round"/>
</svg>
