<svg width="126" height="100" viewBox="0 0 126 100" fill="none" xmlns="http://www.w3.org/2000/svg">
<g clip-path="url(#clip0_80_629)">
<path d="M83.8422 21.9041C83.8238 21.9073 83.7963 21.9119 83.7629 21.9174C83.1099 22.0255 79.1621 22.6346 75.182 21.1185C73.4958 20.4761 74.071 20.3161 70.3157 18.083C65.913 15.465 64.7831 15.4833 64.4553 14.2625C63.8006 11.8249 67.2963 7.99295 69.6101 8.24525C70.2193 8.31168 70.8717 8.67486 71.8864 8.4286C72.1093 8.3745 73.0852 8.13766 73.561 7.32986C73.9854 6.60923 73.6259 6.0894 73.7966 5.49839C74.2446 3.94707 77.9793 3.17287 81.2535 3.71988C83.1367 4.0345 84.6015 4.89344 87.4542 6.59846C92.4193 9.56611 94.9018 11.0499 95.4598 13.3233C95.9886 15.4781 94.7193 16.4065 95.6425 18.7131C96.502 20.8609 97.8672 20.7174 98.337 22.4548C99.093 25.2507 96.2871 28.3191 95.1182 29.5973C93.8367 30.9987 92.6111 31.7679 90.984 32.789C88.9418 34.0706 87.9207 34.7115 86.693 34.6463C84.4671 34.5281 77.853 34.9304 77.7667 33.0885C77.7344 32.3982 69.7125 32.9634 73.6625 25.5315C74.147 24.6199 83.6382 25.5936 83.7634 25.07" fill="#2F2E41"/>
<path d="M87.6831 26.6598L94.5054 36.8362L74.9219 40.7965L76.1692 28.0561L87.6831 26.6598Z" fill="#FFB6B6"/>
<path opacity="0.1" d="M87.6831 26.6598L94.5054 36.8362L74.9219 40.7965L76.1692 28.0561L87.6831 26.6598Z" fill="black"/>
<path d="M73.4553 34.1959L94.5773 33.3159L103.965 38.4497L103.525 71.4527L113.352 90.0811L63.7744 80.6936L67.5881 66.6123L65.8279 36.9829L73.4553 34.1959Z" fill="#FBA631"/>
<path d="M0.568837 98.3103C-0.105496 97.2473 -0.185133 95.934 0.35585 94.7972L8.39494 77.9061C8.99492 76.6454 10.2847 75.8309 11.6808 75.8309H113.221C114.578 75.8309 115.813 76.5776 116.443 77.7795L125.06 94.2051C125.656 95.3405 125.616 96.674 124.955 97.7725C124.294 98.8709 123.134 99.5296 121.852 99.5347L3.65602 100H3.64123C2.38824 100 1.24043 99.3691 0.568837 98.3103Z" fill="white"/>
<path d="M0.568837 98.3103C-0.105496 97.2473 -0.185133 95.934 0.35585 94.7972L8.39494 77.9061C8.99492 76.6454 10.2847 75.8309 11.6808 75.8309H113.221C114.578 75.8309 115.813 76.5776 116.443 77.7795L125.06 94.2051C125.656 95.3405 125.616 96.674 124.955 97.7725C124.294 98.8709 123.134 99.5296 121.852 99.5347L3.65602 100H3.64123C2.38824 100 1.24043 99.3691 0.568837 98.3103ZM11.6808 76.2129C10.4312 76.2129 9.27685 76.942 8.73984 78.0702L0.700756 94.9613C0.216533 95.9787 0.287777 97.1542 0.891363 98.1057C1.49252 99.0534 2.51972 99.618 3.64129 99.618H3.65453L121.85 99.1528C122.998 99.1483 124.036 98.5586 124.628 97.5754C125.22 96.5923 125.255 95.3987 124.722 94.3826L116.105 77.9568C115.541 76.8812 114.436 76.2129 113.221 76.2129H11.6808Z" fill="#3F3D56"/>
<path d="M103.767 93.5427L61.864 90.6618C61.2453 90.6193 60.7519 90.2022 60.607 89.5993C60.4621 88.9963 60.712 88.4006 61.2438 88.0816L70.5097 82.5219C70.7449 82.3807 71.0148 82.3121 71.2884 82.3253L107.534 83.9728C108.013 83.9945 108.441 84.2562 108.679 84.6729C108.917 85.0894 108.924 85.591 108.699 86.0146L105.09 92.8076C104.848 93.2635 104.373 93.546 103.862 93.546C103.83 93.546 103.799 93.5449 103.767 93.5427Z" fill="#3F3D56"/>
<path d="M61.501 88.981L103.231 91.8412L106.532 84.7272L70.7496 83.324L61.501 88.981Z" fill="white"/>
<path d="M82.0361 30.0878C88.9617 30.0878 94.5761 24.4734 94.5761 17.5478C94.5761 10.6222 88.9617 5.00781 82.0361 5.00781C75.1104 5.00781 69.4961 10.6222 69.4961 17.5478C69.4961 24.4734 75.1104 30.0878 82.0361 30.0878Z" fill="#FFB6B6"/>
<path d="M86.4574 18.3593C86.439 18.3624 86.4115 18.3671 86.3782 18.3726C85.7252 18.4807 81.7774 19.0898 77.7972 17.5736C76.111 16.9313 76.6862 16.7712 72.9309 14.5381C68.5283 11.9201 67.3984 11.9384 67.0705 10.7177C66.4159 8.28007 69.9116 4.44809 72.2254 4.70039C72.8345 4.76682 73.4869 5.12999 74.5016 4.88374C74.7246 4.82964 75.7005 4.5928 76.1762 3.78499C76.6006 3.06437 76.2412 2.54454 76.4118 1.95353C76.8599 0.402205 80.5945 -0.371989 83.8688 0.175021C85.752 0.489642 87.2167 1.34858 90.0694 3.0536C95.0345 6.02125 97.517 7.50507 98.075 9.77846C98.6039 11.9332 97.3346 12.8617 98.2577 15.1683C99.1172 17.316 100.482 17.1725 100.952 18.91C101.708 21.7058 98.9023 24.7742 97.7335 26.0525C96.4519 27.4539 95.2263 28.223 93.5993 29.2441C91.557 30.5258 90.5359 31.1666 89.3082 31.1014C87.0823 30.9832 84.8684 28.966 84.7822 27.1241C84.7498 26.4338 85.0378 26.2267 85.7505 23.8537C86.0474 22.865 86.2534 22.0488 86.3787 21.5251" fill="#2F2E41"/>
<path d="M94.6701 85.5454C95.4769 85.5773 96.0909 86.3001 96.1354 87.0833C96.1816 87.8962 95.6164 88.645 94.9374 89.032C94.1419 89.4853 93.1491 89.5581 92.2535 89.4801C91.4478 89.4099 90.5713 89.1593 90.0529 88.4941C89.6167 87.9344 89.4562 87.0886 89.8272 86.4533C90.1951 85.8233 90.9773 85.6494 91.6316 85.9022C92.3241 86.1697 92.7595 86.7995 92.7639 87.5437C92.7687 88.3687 92.2923 89.1309 91.6237 89.5871C90.9026 90.0791 89.995 90.2373 89.1367 90.2353C88.2014 90.2332 87.2703 90.0369 86.4098 89.6724C85.6038 89.3309 84.7984 88.8384 84.222 88.1693C83.6817 87.5419 83.3582 86.6715 83.6581 85.8578C83.9042 85.1905 84.5257 84.7814 85.2374 84.838C85.8891 84.8897 86.5482 85.2678 86.8375 85.87C87.1638 86.5493 87.0172 87.3644 86.6019 87.9718C86.1224 88.6731 85.3644 89.0672 84.5227 89.1241C83.6268 89.1847 82.7397 88.8663 82.0027 88.3743C81.3204 87.9186 80.7207 87.3353 79.988 86.9562C79.6355 86.7738 79.2518 86.6578 78.8526 86.6583C78.3443 86.6589 77.8556 86.8258 77.3613 86.9227C76.9423 87.0048 76.5105 87.0526 76.0971 86.9187C75.7432 86.8042 75.4121 86.5942 75.1893 86.2931C74.9785 86.0082 74.9045 85.6513 75.0239 85.3131C75.1175 85.0479 75.5428 85.1621 75.4482 85.4301C75.2298 86.0485 75.979 86.503 76.5033 86.5597C76.9012 86.6027 77.3116 86.4878 77.6954 86.398C78.0954 86.3045 78.5044 86.2088 78.918 86.2189C80.3832 86.255 81.3518 87.5074 82.5331 88.187C83.7752 88.9014 85.594 88.9512 86.3546 87.5315C86.6308 87.0159 86.6879 86.3305 86.3084 85.8488C85.9922 85.4474 85.4306 85.2073 84.9216 85.2851C84.2823 85.3828 83.9639 85.9916 83.9871 86.5969C84.0156 87.3377 84.5319 87.9396 85.0826 88.3833C86.3083 89.3709 87.9338 89.874 89.5016 89.7857C90.2372 89.7443 91.019 89.5528 91.5904 89.063C92.0841 88.6399 92.4212 87.9517 92.3025 87.2925C92.1998 86.722 91.7214 86.2893 91.1433 86.2319C90.5519 86.1732 90.0898 86.593 90.0634 87.1837C90.0337 87.8482 90.4285 88.4028 91.0005 88.7053C91.6485 89.0481 92.4338 89.0906 93.1519 89.0533C93.9143 89.0136 94.7089 88.8127 95.2424 88.2321C95.6975 87.7368 95.87 87.0021 95.4507 86.4291C95.2656 86.1762 94.9872 85.998 94.6701 85.9855C94.3879 85.9743 94.3865 85.5342 94.6701 85.5454Z" fill="#FBA631"/>
<path d="M74.6155 85.074L74.8398 83.6867L87.2891 59.8924C87.4953 59.4983 87.9838 59.3454 88.3779 59.5516C88.7721 59.7578 88.9249 60.2463 88.7187 60.6404L76.2749 84.4242L75.2576 85.41C75.1373 85.5259 74.9637 85.5509 74.8155 85.4734C74.6674 85.3959 74.5889 85.239 74.6155 85.074Z" fill="#3F3D56"/>
<path d="M83.1006 69.9356C84.5051 70.2 85.8259 70.7969 86.9524 71.6765L87.0158 71.6901L87.0286 71.627L100.597 73.7522L99.6138 55.7053L109.897 50.0732L107.466 80.5787C106.94 82.5269 104.918 83.6647 102.98 83.1036L85.7079 78.1356L85.751 77.923L85.6907 77.9068C84.3103 78.2791 82.8609 78.3153 81.4637 78.0124C77.9585 77.3031 75.4832 74.9195 75.935 72.6888C76.3868 70.4582 79.5942 69.2255 83.1006 69.9356Z" fill="#FFB6B6"/>
<path d="M92.377 41.6767L103.965 38.4497C103.965 38.4497 110.052 42.9235 110.785 47.7639C110.873 48.3396 111.115 75.1558 110.859 75.8531C108.963 81.0191 98.5375 72.7729 98.5375 72.7729L92.377 41.6767Z" fill="#FBA631"/>
<path d="M42.1153 89.8741L40.914 88.8445C40.7352 88.6911 40.5176 88.5895 40.2851 88.5507L13.5185 84.0896C12.9075 83.9877 12.4562 83.5465 12.3406 82.938C12.2251 82.3295 12.4832 81.7536 13.0144 81.4348L22.5635 75.7054C22.8826 75.5139 23.2582 75.4536 23.6216 75.5357L57.5595 83.2032C58.2192 83.3521 58.6596 83.8853 58.6812 84.5614C58.7028 85.2375 58.2975 85.7977 57.6484 85.9887L43.4585 90.1622C43.3238 90.2019 43.1865 90.2212 43.0504 90.2212C42.7117 90.2212 42.3802 90.1013 42.1153 89.8741Z" fill="#3F3D56"/>
<path d="M29.2251 56.6013C30.5518 57.1326 31.7321 57.974 32.667 59.0549L32.7265 59.0806L32.7513 59.0212L45.6514 63.7329L59.4251 41.4313L67.0396 46.1505L51.0694 71.7601C50.1758 73.5696 47.9719 74.2944 46.1787 73.3687L30.1956 65.1509L30.279 64.9507L30.2229 64.9231C28.7966 65.0211 27.3676 64.7761 26.0555 64.2084C22.7539 62.8339 20.787 60.0162 21.6621 57.9152C22.5371 55.8143 25.9225 55.2258 29.2251 56.6013Z" fill="#FFB6B6"/>
<path d="M74.2004 45.4575L68.1082 36.3472C68.1082 36.3472 60.8585 37.7821 57.8722 41.6615C57.4989 42.1464 44.6763 60.743 44.5937 61.5546C44.0155 67.2356 58.7526 69.8975 58.7526 69.8975L74.2004 45.4575Z" fill="#FBA631"/>
<path d="M41.4518 90.1478L10.769 85.907C9.74212 85.7652 8.89455 85.0294 8.60964 84.0325L1.56262 59.3679C1.32384 58.532 1.5021 57.6663 2.05172 56.9928C2.60134 56.3193 3.41338 55.9712 4.2805 56.0374L35.1934 58.4058C36.3118 58.4914 37.2506 59.279 37.5297 60.3653L44.3465 86.9024C44.564 87.7492 44.3465 88.6444 43.7645 89.2968C43.2634 89.8588 42.5528 90.1726 41.812 90.1726C41.6925 90.1726 41.5721 90.1645 41.4518 90.1478Z" fill="#3F3D56"/>
<path d="M34.6133 39.6279C34.7926 39.8252 35.4434 39.6242 36.7378 39.2142C37.7217 38.9025 37.8733 38.7891 37.9668 38.7078C38.2959 38.422 38.3821 38.1213 38.708 36.7933C39.2929 34.4097 39.311 34.173 39.6114 33.6672C39.7148 33.493 39.9761 33.0775 39.9124 33.0261C39.8469 32.9731 39.5642 33.406 39.0416 33.5695C38.5322 33.7289 38.303 33.4736 37.8682 33.5386C37.3061 33.6227 36.9719 34.1566 36.4476 35.0208C35.9834 35.7861 35.925 36.094 35.2742 37.6146C35.0898 38.0454 34.9413 38.3788 34.8273 38.6423C33.5495 39.835 32.2821 41.0434 31.0262 42.2623C31.0504 42.2252 31.0732 42.1903 31.093 42.16C31.6492 41.3059 31.7248 40.848 31.7168 40.5048C31.7037 39.949 31.4382 39.5256 30.9078 38.7015C30.388 37.8939 29.8955 37.361 29.3021 36.7251C28.5243 35.8916 28.1354 35.4748 27.9805 35.5023C26.8743 35.698 26.5784 43.2305 27.9703 44.5776C27.7749 44.7171 27.6131 44.8633 27.4961 45.0071C26.3047 43.6843 24.2637 42.2063 22.0026 42.0244C20.6088 41.9122 19.8394 42.3496 19.6002 42.4998C18.4946 43.1942 17.8372 44.5842 18.1674 44.9763C18.4752 45.3421 19.3644 44.5107 21.1071 44.5564C22.3231 44.5884 23.2729 45.0296 23.8368 45.2915C25.0198 45.8409 25.4524 46.381 26.3246 46.751C25.9157 47.0879 25.5918 47.5084 25.3884 47.9006C25.3179 47.9732 25.2477 48.0462 25.1773 48.119C24.2774 47.6118 23.264 47.2398 22.2018 47.1543C20.8078 47.0421 20.0385 47.4795 19.7993 47.6298C19.0542 48.0978 18.5142 48.8809 18.3413 49.4624C18.2284 49.4851 18.1239 49.511 18.0282 49.539C17.6904 48.7756 16.6851 47.9705 15.7504 47.5648C14.1415 46.8664 12.0515 47.0515 11.8279 47.7157C11.8208 47.7368 11.819 47.7577 11.8158 47.7786C11.9922 46.3556 12.2317 44.9425 12.5309 43.5397C12.541 43.5797 12.5537 43.6203 12.5707 43.6629C12.9679 44.6605 14.0411 45.6179 15.5041 46.1147C16.6523 46.5045 17.1332 46.3025 17.2553 46.246C17.3721 46.1921 17.8761 45.9757 17.9996 45.5455C18.2286 44.7479 16.8264 42.3906 15.9419 43.1813C13.1001 45.7217 12.7101 43.6646 12.5796 43.3184C12.8212 42.2093 13.0993 41.1066 13.4112 40.0102C13.4166 40.0169 13.4212 40.0235 13.4268 40.0303C14.0477 40.7833 15.2425 41.3138 16.6467 41.3372C17.7487 41.3556 18.1088 41.0471 18.1989 40.9643C18.2848 40.8852 18.661 40.5579 18.6483 40.1512C18.6249 39.3973 17.2837 38.7833 16.2106 38.6768C15.2217 38.5787 14.1569 38.8815 13.6287 39.2649C13.8743 38.4438 14.1385 37.6263 14.4203 36.8124C15.142 37.1071 16.1642 37.0675 17.1685 36.6186C17.9967 36.2484 18.1577 35.8929 18.196 35.7998C18.2326 35.7109 18.3991 35.3358 18.248 35.0369C17.9679 34.4829 16.7539 34.4923 15.9166 34.7867C15.5717 34.908 15.244 35.0946 14.9631 35.3055C15.4625 33.9714 16.0068 32.6468 16.5922 31.332L16.0055 31.1853C15.2577 32.8649 14.6056 34.5664 14.0453 36.2868C13.9756 35.7822 13.801 35.2447 13.571 34.808C12.895 33.524 11.4511 32.5607 10.9627 32.8733C10.8651 32.9358 10.8239 33.0376 10.7868 33.1588C10.4874 34.1343 10.7129 35.4823 11.5012 36.7209C12.1199 37.6929 12.5964 37.8294 12.7205 37.8603C12.8254 37.8863 13.23 37.9981 13.5626 37.8541C13.3389 38.6206 13.1321 39.3903 12.9435 40.1635C12.7166 39.6 12.2694 38.9997 11.7964 38.5846C10.7058 37.6274 9.01279 37.2443 8.66858 37.7109C8.59975 37.8042 8.59778 37.914 8.60641 38.0405C8.67581 39.0584 9.36853 40.2366 10.5477 41.1113C11.4732 41.7977 11.967 41.7547 12.094 41.7391C12.1687 41.7299 12.3945 41.7074 12.6123 41.609C12.4101 42.5484 12.2335 43.4924 12.0808 44.4404C11.7754 43.3799 10.738 42.0569 9.75894 42.4778C8.02159 43.2247 5.97935 42.0775 5.75457 42.5791C5.69609 42.7097 5.7445 42.8443 5.80047 42.9903C6.25058 44.1656 7.49371 45.3043 9.20062 45.909C10.5403 46.3836 11.1071 46.1542 11.2511 46.0899C11.3466 46.0473 11.6616 45.9157 11.8963 45.6715C11.7276 46.8896 11.5982 48.1139 11.5072 49.3435C11.145 48.5526 10.1247 47.7194 9.16953 47.2898C7.4941 46.5362 5.30278 46.7013 5.05941 47.3937C5.01074 47.5322 5.04913 47.6659 5.10654 47.8158C5.56856 49.0221 6.84446 50.1909 8.59646 50.8115C9.97151 51.2987 10.5532 51.0632 10.7011 50.9972C10.8091 50.949 11.1906 50.7896 11.4338 50.487C11.4027 51.0554 11.3786 51.6248 11.3634 52.1953C11.3591 52.3578 11.3565 52.5203 11.3534 52.6828C11.3336 52.7147 11.3164 52.7473 11.305 52.7815C11.258 52.9209 11.29 53.0549 11.3451 53.2014C11.3438 53.3046 11.3432 53.4078 11.3425 53.511C11.036 53.2331 10.6703 52.8153 10.2305 52.2199C9.83364 51.6828 9.45677 52.0769 9.21469 52.5343C8.83517 52.4498 8.47316 52.5021 8.18847 52.768C6.2793 54.5515 4.13797 53.6053 4.10767 54.1371C4.09894 54.2905 4.18112 54.4125 4.28472 54.5449C5.11832 55.6098 6.75479 56.3866 8.69895 56.4685C10.2248 56.5328 10.7344 56.1181 10.8621 56.0066C10.9069 55.9674 11.0074 55.8828 11.1162 55.7639C11.2036 55.8337 11.2886 55.897 11.3739 55.9547C11.4075 56.9756 11.4675 57.9954 11.5566 59.0132C11.4842 59.0197 11.415 59.0316 11.3634 59.0369C10.6243 59.1122 10.3753 58.115 9.25878 57.7507C8.888 57.6297 8.17368 57.4977 7.79724 57.7507C7.74302 57.7871 7.55806 57.9242 7.27108 58.043C7.10144 58.1133 6.97184 58.1459 6.92031 58.1599C6.46222 58.2852 6.03794 58.629 5.75109 58.8615C5.21186 59.2984 4.94228 59.5169 4.81569 59.9138C4.77587 60.0387 4.66381 60.39 4.81569 60.7322C4.88745 60.8939 5.05401 61.1345 5.69262 61.3753C6.07217 61.5185 7.17922 61.936 8.49877 61.4923C8.79925 61.3912 8.56989 61.4274 9.72646 60.8492C10.6364 60.3943 11.1686 60.1768 11.2465 59.7384C11.2739 59.5843 11.2463 59.3963 11.3634 59.3292C11.4285 59.2918 11.5072 59.31 11.5858 59.3383C11.6623 60.1566 11.758 60.9736 11.8738 61.7889H10.8326C9.45004 61.7889 8.2097 62.5584 7.59577 63.7972L3.70106 71.6545C3.45519 72.1504 3.3252 72.7052 3.3252 73.2588V93.463C3.3252 95.4551 4.94586 97.0757 6.93793 97.0757H16.0287C18.0208 97.0757 19.6414 95.4551 19.6414 93.463V74.8589C19.6414 74.4053 19.5574 73.9613 19.3917 73.539L15.6799 64.0817C15.2297 62.9348 14.2546 62.1234 13.089 61.8722C13.4629 61.429 13.8373 60.9862 14.2147 60.5448C14.6898 60.774 15.2125 60.9622 15.7745 61.0944C17.2612 61.4439 17.8396 61.1322 17.9859 61.0466C18.1257 60.9649 18.7314 60.6325 18.834 60.0782C18.845 60.0188 18.8493 59.9587 18.8485 59.8982C20.3714 61.1361 21.1658 61.7463 21.7462 61.5429C22.2452 61.368 22.53 60.7947 22.6932 60.2804C22.8635 60.304 23.0442 60.3282 23.2367 60.354C25.3224 60.6324 26.3735 60.7616 26.7755 60.2676C27.3319 59.5839 26.8038 58.2655 26.6582 57.9022C26.3419 57.1125 25.8552 56.632 25.5528 56.3397C25.1602 55.9601 24.0412 54.8782 22.2796 54.7339C21.8967 54.7025 21.5526 54.7266 21.2021 54.7999C21.08 54.6882 20.9511 54.5788 20.8092 54.4748C20.5388 54.2767 20.2718 54.13 19.9844 54.0154C20.4253 53.5323 20.8674 53.0508 21.3116 52.5712C21.3819 52.6032 21.4487 52.6341 21.51 52.6626C22.9652 53.3384 23.2849 54.0003 24.6844 54.3487C25.3193 54.5067 26.0381 54.6857 26.216 54.4167C26.5321 53.9387 25.1903 51.9721 23.1168 50.6415C23.2566 50.4934 23.3968 50.3459 23.5369 50.1983C23.7265 50.2778 23.8936 50.3553 24.0359 50.4214C25.4911 51.0973 25.8108 51.7591 27.2103 52.1075C27.8451 52.2656 28.5639 52.4445 28.7419 52.1755C29.024 51.749 27.9861 50.1369 26.2864 48.8492C26.7533 48.701 27.3724 48.5366 28.1741 48.5577C29.3901 48.5897 30.3399 49.0308 30.9038 49.2927C32.359 49.9686 32.6787 50.6304 34.0782 50.9788C34.713 51.1369 35.4318 51.3158 35.6098 51.0468C36.0797 50.3362 32.8878 46.3329 29.0696 46.0256C28.7732 46.0018 28.5068 46.0038 28.266 46.0216C28.2327 45.9664 28.1966 45.9098 28.1585 45.8523C29.4504 45.8938 31.9734 45.5244 34.1208 47.0321C34.74 47.4668 35.9429 48.4894 37.9559 49.3296C38.5993 49.5982 38.9229 49.7302 39.012 49.6199C39.331 49.2252 36.6788 45.9767 32.9474 44.3764C31.468 43.7419 30.5539 43.6819 29.9038 43.778C30.004 43.6638 30.1016 43.5459 30.1956 43.4275C31.6486 42.0025 33.1199 40.5924 34.6044 39.2012C34.5325 39.4234 34.5349 39.5417 34.6133 39.6279ZM15.9677 57.3638C14.3266 56.8326 12.3394 57.118 11.8212 57.7225C11.7481 57.1867 11.6847 56.6502 11.6323 56.1127C12.38 56.5302 13.1601 56.642 14.64 56.8396C15.2703 56.9238 15.8046 56.9939 16.2566 57.0377C16.3173 57.2022 16.382 57.3503 16.4572 57.4919C16.4659 57.5084 16.4752 57.524 16.4841 57.5402L16.471 57.5552C16.3025 57.4821 16.1336 57.4176 15.9677 57.3638ZM11.6075 50.1663C11.6543 50.011 11.6553 49.8457 11.6195 49.6752C11.6706 49.0576 11.7343 48.4419 11.8097 47.8281C11.8078 47.922 11.8376 48.0161 11.8782 48.118C12.3344 49.2638 13.5672 50.3636 15.2476 50.9342C15.561 51.0406 15.8299 51.1077 16.0615 51.1487C15.9596 51.3263 15.8815 51.4993 15.8298 51.6594C15.2569 51.1992 14.5195 50.8645 13.6828 51.2195C13.4552 51.3162 13.32 51.6696 13.2026 52.0923C12.4297 52.1056 11.7838 52.2669 11.4762 52.5397C11.4778 52.4259 11.4773 52.3124 11.4803 52.1984C11.4977 51.5488 11.5297 50.9012 11.5748 50.2557C11.5871 50.2268 11.5982 50.1971 11.6075 50.1663ZM11.4784 53.5077C11.5117 53.5759 11.5482 53.6438 11.5861 53.7115C11.5517 53.6861 11.5165 53.6589 11.4804 53.6294C11.4794 53.5889 11.4791 53.5483 11.4784 53.5077ZM12.7981 61.8223C12.7081 61.8105 12.6173 61.8019 12.5256 61.7967C12.314 60.7464 12.1186 59.6967 11.9551 58.645C12.3851 59.3274 13.087 59.9523 13.981 60.4261C13.5843 60.8903 13.1909 61.3561 12.7981 61.8223ZM19.7246 53.9223C19.1649 53.7426 18.5082 53.6566 17.5993 53.551C17.369 53.2309 17.1315 52.995 16.956 52.8254C16.861 52.7334 16.715 52.5511 16.526 52.3378C17.0159 52.1806 17.7471 51.9004 18.7803 51.9276C19.7193 51.9522 20.4986 52.2208 21.065 52.4625C20.6163 52.9472 20.1699 53.4341 19.7246 53.9223ZM22.8964 50.5039C22.3464 50.1716 21.75 49.8871 21.1221 49.6871C21.1832 49.6865 21.2429 49.6847 21.3062 49.6864C22.0848 49.7069 22.7535 49.8951 23.2824 50.0967C23.1537 50.2324 23.0248 50.3679 22.8964 50.5039Z" fill="#CCCCCC"/>
</g>
<defs>
<clipPath id="clip0_80_629">
<rect width="125.48" height="100" fill="white"/>
</clipPath>
</defs>
</svg>
