<svg width="20" height="20" viewBox="0 0 20 20" xmlns="http://www.w3.org/2000/svg">
<path d="M15 13.9584C14.8667 13.9584 14.7416 13.9167 14.625 13.8334C14.35 13.6251 14.2917 13.2334 14.5 12.9584C15.8083 11.2167 15.8083 8.7834 14.5 7.04173C14.2917 6.76673 14.35 6.37506 14.625 6.16673C14.9 5.9584 15.2917 6.01673 15.5 6.29173C17.1333 8.47506 17.1333 11.5251 15.5 13.7084C15.375 13.8751 15.1917 13.9584 15 13.9584Z" />
<path d="M16.5249 16.0416C16.3916 16.0416 16.2666 15.9999 16.1499 15.9166C15.8749 15.7082 15.8166 15.3166 16.0249 15.0416C18.2499 12.0749 18.2499 7.9249 16.0249 4.95823C15.8166 4.68323 15.8749 4.29157 16.1499 4.08324C16.4249 3.8749 16.8166 3.93324 17.0249 4.20824C19.5832 7.61657 19.5832 12.3832 17.0249 15.7916C16.9082 15.9582 16.7166 16.0416 16.5249 16.0416Z" fill="#A8ABB2"/>
<path d="M11.6834 3.14993C10.7501 2.63327 9.55841 2.7666 8.34175 3.52493L5.90841 5.04993C5.74175 5.14993 5.55008 5.20827 5.35841 5.20827H4.58341H4.16675C2.15008 5.20827 1.04175 6.3166 1.04175 8.33327V11.6666C1.04175 13.6833 2.15008 14.7916 4.16675 14.7916H4.58341H5.35841C5.55008 14.7916 5.74175 14.8499 5.90841 14.9499L8.34175 16.4749C9.07508 16.9333 9.79175 17.1583 10.4584 17.1583C10.8917 17.1583 11.3084 17.0583 11.6834 16.8499C12.6084 16.3333 13.1251 15.2583 13.1251 13.8249V6.17493C13.1251 4.7416 12.6084 3.6666 11.6834 3.14993Z" />
</svg>
