<svg width="27" height="26" viewBox="0 0 27 26" fill="none" xmlns="http://www.w3.org/2000/svg">
<path d="M8.02935 20.2635C7.83133 20.2537 7.67176 20.2382 7.468 20.1899C7.26424 20.1416 7.10468 20.1261 6.93938 20.072C6.57033 19.9698 6.234 19.8233 5.89195 19.6384C5.21358 19.3069 4.62768 18.8045 4.13997 18.1695C3.65799 17.573 3.31266 16.8381 3.16537 16.1131C3.06962 15.7343 3.05653 15.3824 3.03771 14.9921C3.04753 14.794 3.06307 14.6345 3.07289 14.4364C3.08271 14.2384 3.13672 14.0731 3.14654 13.8751L3.26519 14.4078C3.29383 14.6001 3.35521 14.7482 3.42231 14.9348C3.51232 15.2752 3.6408 15.6099 3.76354 15.9061C4.01476 16.537 4.33718 17.118 4.76924 17.6433C5.2013 18.1687 5.6661 18.6499 6.24055 19.0754C6.50568 19.2718 6.80927 19.4624 7.11286 19.6531C7.24542 19.7513 7.41645 19.8437 7.58747 19.9362L8.02935 20.2635ZM8.12019 21.6653C8.01627 21.7594 7.86816 21.8208 7.72004 21.8821C7.57193 21.9435 7.46228 21.9991 7.30844 22.0221C7.04495 22.1006 6.743 22.1849 6.42959 22.1923C5.84696 22.2397 5.20869 22.1775 4.66861 21.9828C4.09007 21.7938 3.56554 21.4394 3.18339 20.9853C2.99518 20.7774 2.80124 20.5311 2.64576 20.2791C2.59012 20.1694 2.52875 20.0213 2.46737 19.8732C2.45019 19.7578 2.39454 19.6482 2.37163 19.4944C2.5042 19.5925 2.5983 19.6965 2.68668 19.7619C2.81924 19.8601 2.91335 19.9641 3.00172 20.0295C3.22267 20.1932 3.40515 20.3626 3.62036 20.4878C4.05651 20.7766 4.48694 21.027 4.98283 21.189C5.44026 21.3568 5.96888 21.4746 6.45332 21.5597C6.69553 21.6023 6.97048 21.6006 7.25116 21.6375C7.37227 21.6587 7.52611 21.6358 7.64722 21.6571C7.84524 21.6669 7.96062 21.6497 8.12019 21.6653ZM14.0282 1.67911C14.2263 1.68892 14.3916 1.74293 14.5953 1.79121C14.7991 1.83949 14.9644 1.8935 15.1297 1.9475C15.5044 2.08825 15.8408 2.23472 16.1828 2.41966C16.8669 2.78953 17.4585 3.33042 17.9078 3.97115C18.357 4.61187 18.6639 5.35243 18.7727 6.08317C18.83 6.46777 18.8431 6.81964 18.8235 7.2157C18.8137 7.41373 18.7981 7.57329 18.7498 7.77705C18.7016 7.98081 18.686 8.14038 18.632 8.30567L18.5134 7.77296C18.4847 7.58066 18.4618 7.42682 18.3947 7.24025L18.1247 6.21901C17.9119 5.58238 17.5838 4.96293 17.1844 4.39339C16.7851 3.82386 16.3203 3.3427 15.7843 2.91146C15.5134 2.67661 15.2099 2.48594 14.939 2.25109C14.8064 2.1529 14.6354 2.06043 14.4644 1.96796L14.0282 1.67911ZM17.3513 1.02691C17.5109 1.04245 17.632 1.06373 17.7589 1.12346C17.88 1.14474 18.0453 1.19875 18.1721 1.25848C18.4258 1.37795 18.6794 1.49742 18.9388 1.65535C19.4192 1.97694 19.8341 2.38691 20.1066 2.89671C20.4175 3.40078 20.5804 3.96622 20.5894 4.55458C20.591 4.82953 20.5542 5.11021 20.5174 5.39088C20.4961 5.51199 20.4421 5.67729 20.4208 5.7984C20.3611 5.92523 20.3398 6.04634 20.2416 6.17891L20.1843 5.79431L20.127 5.40971C20.0869 5.14049 20.0141 4.91545 19.9797 4.68469C19.8283 4.19617 19.6827 3.74611 19.4274 3.35169C19.1663 2.91881 18.8783 2.56858 18.5461 2.18561C18.3636 2.01623 18.1754 1.80838 17.9929 1.63899C17.8988 1.53507 17.8104 1.4696 17.6778 1.37141C17.5723 1.19057 17.4397 1.09237 17.3513 1.02691Z" fill="#42ADE2"/>
<path d="M3.93632 8.88259C3.21867 9.3433 3.08693 10.3064 3.54763 11.0241L9.90013 20.4173L12.4033 18.7472L6.04508 9.31546C5.58437 8.59782 4.64823 8.38343 3.93632 8.88259ZM17.8638 15.0247L20.5093 13.2547L13.2526 2.54155C12.7535 1.82963 11.7789 1.62097 11.0285 2.12586C10.3166 2.62503 10.1079 3.59962 10.6128 4.35L17.8638 15.0247Z" fill="#FFDD67"/>
<path d="M11.0618 2.08173C10.9906 2.13165 10.9194 2.18157 10.8539 2.26994C11.556 1.96881 12.3768 2.20038 12.826 2.84111L20.0828 13.5542L20.5484 13.249L13.2916 2.53588C12.7868 1.7855 11.8122 1.57684 11.0618 2.08173Z" fill="#EBA352"/>
<path d="M12.3977 18.7087L15.1472 16.8446L7.74069 5.91789C7.2358 5.16752 6.17855 4.93185 5.42817 5.43674C4.6778 5.94164 4.48059 6.99315 4.98548 7.74353L12.3977 18.7087Z" fill="#FFDD67"/>
<path d="M5.43373 5.47521C5.36254 5.52513 5.29134 5.57504 5.22588 5.66342C5.92798 5.36228 6.82566 5.5824 7.28063 6.26159L11.8746 13.0862L12.7952 13.4601L7.74624 5.95636C7.23562 5.16752 6.22257 4.96459 5.43373 5.47521Z" fill="#EBA352"/>
<path d="M14.5478 15.9903L17.2973 14.1262L9.89084 3.19952C9.38594 2.44915 8.3287 2.21348 7.58405 2.75683C6.83367 3.26173 6.63646 4.31324 7.14136 5.06362L14.5478 15.9903Z" fill="#FFDD67"/>
<path d="M7.57869 2.71845C7.50749 2.76836 7.44203 2.85674 7.37084 2.90666C8.07294 2.60552 8.97061 2.82564 9.42559 3.50482L14.6243 11.2222L15.5449 11.5961L9.8912 3.1996C9.38058 2.41076 8.32907 2.21355 7.57869 2.71845ZM3.93646 8.88271C3.86527 8.93263 3.79408 8.98254 3.72862 9.07092C4.39226 8.77551 5.17455 9.01281 5.58534 9.65927L9.36918 15.2679L10.2898 15.6418L6.05095 9.35404C5.58452 8.59793 4.64838 8.38354 3.93646 8.88271Z" fill="#EBA352"/>
<path d="M23.3026 4.81883C22.1439 4.16583 20.5834 5.30245 20.1497 8.1976C19.8592 10.2065 19.8682 10.7949 18.7234 11.5551L17.8192 10.2352C17.8192 10.2352 7.6813 17.131 8.23038 17.9141C8.23038 17.9141 10.1452 21.7961 12.6566 23.3484C16.388 25.7019 23.666 21.5121 22.918 14.1147C22.4745 9.817 24.5497 5.53729 23.3026 4.81883Z" fill="#FFDD67"/>
<path d="M23.3021 4.81894C23.0869 4.69374 22.8447 4.65119 22.6082 4.6471C22.6524 4.67983 22.7293 4.66837 22.7735 4.7011C24.059 5.41384 23.1704 7.62979 22.7915 9.57326C22.4707 11.1149 22.2326 12.6836 22.5272 14.1336C23.7858 20.4722 17.8155 24.4671 13.7976 23.8862C17.8016 24.9017 24.3545 20.8592 23.0558 14.2515C22.7612 12.8014 22.9723 11.3154 23.3201 9.69109C23.6605 7.75335 24.5492 5.5374 23.3021 4.81894Z" fill="#EBA352"/>
<path d="M19.0461 11.3497C16.7017 11.9741 13.7116 15.9183 16.7287 19.2823C14.3597 15.7824 16.9431 12.803 18.6959 11.6377C18.8653 11.4553 19.0461 11.3497 19.0461 11.3497Z" fill="#EBA352"/>
</svg>
