<svg width="24" height="25" viewBox="0 0 24 25" fill="none" xmlns="http://www.w3.org/2000/svg">
<path d="M14.5 20H9.5M14.5 20C14.5 19.2865 14.5 18.9297 14.5381 18.693C14.6609 17.9296 14.6824 17.8815 15.1692 17.2807C15.3201 17.0945 15.8805 16.5927 17.0012 15.5892C18.5349 14.2159 19.5 12.2206 19.5 10C19.5 5.85786 16.1421 2.5 12 2.5C7.85786 2.5 4.5 5.85786 4.5 10C4.5 12.2206 5.4651 14.2159 6.99876 15.5892C8.11945 16.5927 8.67987 17.0945 8.83082 17.2807C9.31762 17.8815 9.3391 17.9296 9.46192 18.693C9.5 18.9297 9.5 19.2865 9.5 20M14.5 20C14.5 20.9346 14.5 21.4019 14.299 21.75C14.1674 21.978 13.978 22.1674 13.75 22.299C13.4019 22.5 12.9346 22.5 12 22.5C11.0654 22.5 10.5981 22.5 10.25 22.299C10.022 22.1674 9.83261 21.978 9.70096 21.75C9.5 21.4019 9.5 20.9346 9.5 20" stroke="#FBA631" stroke-width="1.5"/>
<path d="M12 17.5V15.5" stroke="#FBA631" stroke-width="1.5" stroke-linecap="round"/>
<path d="M13.7324 14.5C13.3866 15.0978 12.7403 15.5 12 15.5C11.2597 15.5 10.6134 15.0978 10.2676 14.5" stroke="#FBA631" stroke-width="1.5" stroke-linecap="round"/>
</svg>
