<svg width="28" height="28" viewBox="0 0 28 28" fill="none" xmlns="http://www.w3.org/2000/svg">
<g clip-path="url(#clip0_1568_17678)">
<path d="M5.2156 0.141833C6.17424 -0.00934101 7.14918 -0.0102462 8.11778 0.0114794L8.0345 0.0884244C6.76717 0.918525 5.71619 2.05822 4.9567 3.36628C3.4341 5.98512 2.87919 9.08193 3.00501 12.0837C3.12994 14.5278 3.71653 16.9855 4.96032 19.1101C5.16853 19.4903 5.51523 19.8262 5.52066 20.2878C5.55959 21.2782 5.06985 22.2115 4.40722 22.9194C4.45067 22.9646 4.49322 23.0099 4.53667 23.0551C5.15676 23.7323 5.81848 24.3686 6.44853 25.0367C7.3438 26.0487 8.364 26.9449 9.24118 27.9751C7.78194 27.9968 6.3055 28.0647 4.86346 27.7922C3.04847 27.4401 1.43715 26.1818 0.667698 24.4999C0.201502 23.5277 0.0620958 22.4405 0.0258864 21.375C0.0249812 16.456 0.0249812 11.5378 0.0258864 6.61969C0.0458016 4.97579 0.48122 3.25584 1.63811 2.03649C2.55421 1.00362 3.85141 0.331933 5.2156 0.141833Z" fill="#0068FF"/>
<path d="M18.5063 9.17426C18.8946 9.17426 19.283 9.17426 19.6722 9.17426C19.6659 11.4491 19.6659 13.7249 19.6722 15.9997C19.292 15.9463 18.6593 16.1898 18.5162 15.6838C18.4927 13.5149 18.5144 11.3441 18.5063 9.17426Z" fill="#0068FF"/>
<path d="M6.62592 9.25482C8.43277 9.25301 10.2378 9.24124 12.0438 9.25391C12.0311 9.60786 12.0112 9.99349 11.774 10.2795C10.5393 11.8166 9.33077 13.3736 8.09693 14.9107C9.40862 14.9189 10.7203 14.9134 12.032 14.9134C12.0075 15.2203 12.1153 15.5779 11.9161 15.844C11.7912 16.016 11.5649 16.0006 11.3775 16.0024C9.73631 15.9934 8.09512 16.0106 6.45483 15.9934C6.45936 15.6467 6.46298 15.2629 6.70558 14.9868C7.92584 13.456 9.16058 11.9361 10.3754 10.4017C9.12709 10.4036 7.87786 10.3936 6.62954 10.4072C6.6214 10.0234 6.62411 9.63864 6.62592 9.25482Z" fill="#0068FF"/>
<path d="M22.5626 10.7611C23.8625 10.4706 25.2729 11.3242 25.6286 12.6042C26.0749 13.9358 25.2602 15.5191 23.9141 15.9246C22.7708 16.3274 21.4021 15.8015 20.8092 14.7478C20.3439 13.9693 20.3158 12.95 20.7386 12.1489C21.097 11.4419 21.7895 10.925 22.5626 10.7611ZM22.5409 11.9144C21.7479 12.1941 21.3206 13.1591 21.6302 13.9385C21.8864 14.6754 22.7491 15.1262 23.4986 14.8999C24.3541 14.6953 24.871 13.6932 24.5677 12.8721C24.3142 12.0592 23.3321 11.5903 22.5409 11.9144Z" fill="#0068FF"/>
<path d="M12.9327 11.7089C13.5582 10.9341 14.6535 10.552 15.6185 10.8281C15.9372 10.9087 16.2259 11.068 16.5048 11.2373C16.502 11.1522 16.4957 10.9829 16.493 10.8978C16.8578 10.896 17.2217 10.8969 17.5865 10.8951C17.5847 12.597 17.5829 14.2988 17.5874 16.0016C17.3195 15.9943 17.047 16.026 16.7836 15.9717C16.5989 15.8965 16.5419 15.6947 16.4685 15.5299C15.4619 16.3121 13.8805 16.1346 13.044 15.1823C12.1524 14.2599 12.1062 12.6884 12.9327 11.7089ZM14.4064 11.9371C13.5682 12.2322 13.1617 13.3121 13.5863 14.0906C13.9484 14.8492 14.9677 15.1678 15.6964 14.7496C16.3726 14.3948 16.6849 13.514 16.3943 12.8097C16.1128 12.0439 15.1632 11.6148 14.4064 11.9371Z" fill="#0068FF"/>
<path d="M8.0345 0.0884188C8.23727 0.0304838 8.4491 0.0123791 8.65911 0.00604248C12.2791 0.019621 15.8992 0.00423201 19.5192 0.0105687C20.4869 0.0223367 21.46 -0.0428402 22.4205 0.104713C23.7503 0.206099 25.0303 0.769155 26.0197 1.659C27.2617 2.84576 27.9243 4.55485 27.9451 6.2594C27.946 11.0581 27.9433 15.8603 27.9479 20.6572C27.9352 20.6852 27.9107 20.7432 27.8981 20.7721C26.6081 22.2151 24.8737 23.1918 23.0605 23.8237C20.6173 24.6565 18.0002 24.9244 15.4321 24.7289C12.8639 24.508 10.2759 23.8373 8.09787 22.4178C6.98443 22.913 5.75603 23.1556 4.53667 23.0551C4.49322 23.0099 4.45068 22.9646 4.40723 22.9193C5.06986 22.2115 5.55959 21.2782 5.52066 20.2878C5.51523 19.8262 5.16853 19.4903 4.96032 19.1101C3.71653 16.9855 3.12994 14.5278 3.00502 12.0837C2.87919 9.08193 3.4341 5.98512 4.9567 3.36627C5.71619 2.05821 6.76717 0.918519 8.0345 0.0884188ZM18.5063 9.17426C18.5144 11.3441 18.4927 13.5149 18.5162 15.6838C18.6592 16.1898 19.292 15.9463 19.6722 15.9997C19.6659 13.7249 19.6659 11.4491 19.6722 9.17426C19.2829 9.17426 18.8946 9.17426 18.5063 9.17426ZM6.62596 9.25483C6.62415 9.63865 6.62143 10.0234 6.62958 10.4072C7.8779 10.3936 9.12712 10.4036 10.3754 10.4018C9.16061 11.9361 7.92587 13.456 6.70562 14.9868C6.46301 15.2629 6.45939 15.6467 6.45487 15.9934C8.09515 16.0106 9.73634 15.9934 11.3775 16.0024C11.5649 16.0006 11.7912 16.016 11.9161 15.844C12.1153 15.5779 12.0076 15.2203 12.032 14.9134C10.7203 14.9134 9.40865 14.9189 8.09696 14.9107C9.3308 13.3736 10.5393 11.8166 11.774 10.2796C12.0112 9.9935 12.0311 9.60787 12.0438 9.25392C10.2378 9.24125 8.4328 9.25302 6.62596 9.25483ZM22.5626 10.7611C21.7895 10.925 21.097 11.4419 20.7386 12.1489C20.3158 12.95 20.3439 13.9693 20.8092 14.7478C21.4021 15.8015 22.7708 16.3274 23.9141 15.9246C25.2602 15.5191 26.0749 13.9358 25.6286 12.6042C25.2729 11.3242 23.8625 10.4706 22.5626 10.7611ZM12.9327 11.7089C12.1062 12.6884 12.1524 14.2599 13.0441 15.1823C13.8805 16.1346 15.462 16.312 16.4686 15.5299C16.5419 15.6947 16.5989 15.8965 16.7836 15.9717C17.047 16.026 17.3195 15.9943 17.5874 16.0015C17.5829 14.2988 17.5847 12.597 17.5865 10.8951C17.2217 10.8969 16.8578 10.896 16.493 10.8978C16.4957 10.9829 16.5021 11.1522 16.5048 11.2373C16.226 11.068 15.9372 10.9087 15.6186 10.8281C14.6536 10.552 13.5582 10.934 12.9327 11.7089Z" fill="white"/>
<path d="M14.4064 11.937C15.1632 11.6148 16.1128 12.0438 16.3943 12.8097C16.6849 13.5139 16.3726 14.3947 15.6964 14.7496C14.9677 15.1678 13.9484 14.8492 13.5863 14.0906C13.1617 13.3121 13.5682 12.2321 14.4064 11.937Z" fill="white"/>
<path d="M22.5409 11.9144C23.3321 11.5903 24.3143 12.0592 24.5677 12.8721C24.871 13.6932 24.3541 14.6953 23.4986 14.8999C22.7491 15.1262 21.8864 14.6754 21.6302 13.9385C21.3206 13.1591 21.7479 12.1941 22.5409 11.9144Z" fill="white"/>
<path d="M27.8981 20.7721L27.9696 20.6943C28.0067 22.1092 27.8537 23.5856 27.1594 24.8448C26.3519 26.3221 24.8873 27.4193 23.2397 27.7705C22.3155 27.9615 21.3677 28.004 20.4263 27.9923C17.5304 27.9932 14.6346 27.9923 11.7387 27.9932C10.9059 27.9796 10.0713 28.0185 9.24119 27.9751C8.36401 26.9449 7.34382 26.0487 6.44854 25.0367C5.81849 24.3686 5.15677 23.7322 4.53668 23.0551C5.75603 23.1556 6.98444 22.913 8.09788 22.4178C10.2759 23.8373 12.8639 24.508 15.4321 24.7289C18.0002 24.9244 20.6173 24.6565 23.0605 23.8237C24.8737 23.1918 26.6081 22.2151 27.8981 20.7721Z" fill="#005BE0"/>
</g>
<defs>
<clipPath id="clip0_1568_17678">
<rect width="28" height="28" fill="white"/>
</clipPath>
</defs>
</svg>
