<svg width="36" height="37" viewBox="0 0 36 37" fill="none" xmlns="http://www.w3.org/2000/svg">
<path d="M18.569 25.7516H15.134C14.519 25.7516 14.009 25.2416 14.009 24.6266C14.009 24.0116 14.519 23.5016 15.134 23.5016H18.569C19.214 23.5016 19.739 22.9766 19.739 22.3316C19.739 21.6866 19.214 21.1616 18.569 21.1616H15.134C14.774 21.1616 14.429 20.9816 14.219 20.6966C14.009 20.4116 13.949 20.0216 14.069 19.6766L15.209 16.2416C15.359 15.7766 15.794 15.4766 16.274 15.4766H20.864C21.479 15.4766 21.989 15.9866 21.989 16.6016C21.989 17.2166 21.479 17.7266 20.864 17.7266H17.084L16.694 18.9116H18.569C20.459 18.9116 21.989 20.4416 21.989 22.3316C21.989 24.2216 20.459 25.7516 18.569 25.7516Z" fill="#A8ABB2"/>
<path d="M17.9984 5.59173C17.8784 5.59173 17.7584 5.60673 17.6384 5.60673L18.8684 4.07673C19.2584 3.59673 19.1834 2.87673 18.6884 2.50173C18.1934 2.12673 17.5034 2.18673 17.1134 2.68173L14.1584 6.37173C14.1434 6.38673 14.1434 6.40173 14.1284 6.43173C14.0834 6.49173 14.0534 6.56673 14.0234 6.62673C13.9934 6.70173 13.9634 6.76173 13.9484 6.82173C13.9334 6.89673 13.9334 6.95673 13.9334 7.03173C13.9334 7.10673 13.9334 7.18173 13.9334 7.25673C13.9334 7.28673 13.9334 7.30173 13.9334 7.33173C13.9484 7.37673 13.9784 7.40673 13.9934 7.45173C14.0234 7.52673 14.0534 7.58673 14.0834 7.66173C14.1284 7.72173 14.1734 7.78173 14.2334 7.82673C14.2634 7.87173 14.2784 7.91673 14.3234 7.94673C14.3534 7.96173 14.3684 7.97673 14.3984 7.99173C14.4434 8.02173 14.4734 8.03673 14.5184 8.05173C14.5934 8.09673 14.6834 8.12673 14.7734 8.14173C14.8184 8.17173 14.8634 8.17173 14.9084 8.17173C14.9534 8.17173 14.9834 8.18673 15.0284 8.18673C15.0734 8.18673 15.1034 8.17173 15.1334 8.15673C15.1784 8.15673 15.2234 8.17173 15.2684 8.15673C16.2284 7.93173 17.1284 7.82673 17.9834 7.82673C24.7184 7.82673 30.1934 13.3017 30.1934 20.0367C30.1934 26.7717 24.7184 32.2467 17.9834 32.2467C11.2484 32.2467 5.77344 26.7717 5.77344 20.0367C5.77344 17.4267 6.62844 14.9067 8.24844 12.7467C8.62344 12.2517 8.51844 11.5467 8.02344 11.1717C7.52844 10.7967 6.82344 10.9017 6.44844 11.3967C4.52844 13.9467 3.52344 16.9317 3.52344 20.0367C3.52344 28.0017 10.0034 34.4967 17.9834 34.4967C25.9634 34.4967 32.4434 28.0167 32.4434 20.0367C32.4434 12.0567 25.9634 5.59173 17.9984 5.59173Z" fill="#A8ABB2"/>
</svg>
