<svg width="24" height="25" viewBox="0 0 24 25" fill="none" xmlns="http://www.w3.org/2000/svg">
<path d="M22 5.04171V17.1117C22 18.0717 21.22 18.9717 20.26 19.0917L19.93 19.1317C17.75 19.4217 14.39 20.5317 12.47 21.5917C12.21 21.7417 11.78 21.7417 11.51 21.5917L11.47 21.5717C9.54997 20.5217 6.20003 19.4217 4.03003 19.1317L3.73999 19.0917C2.77999 18.9717 2 18.0717 2 17.1117V5.0317C2 3.8417 2.96997 2.94171 4.15997 3.04171C6.25997 3.21171 9.43997 4.27174 11.22 5.38174L11.47 5.5317C11.76 5.7117 12.24 5.7117 12.53 5.5317L12.7 5.42171C13.33 5.03171 14.13 4.64171 15 4.29171V8.37173L17 7.04171L19 8.37173V3.15176C19.27 3.10176 19.53 3.07172 19.77 3.05172H19.83C21.02 2.95172 22 3.84171 22 5.04171Z" stroke="#151515" stroke-width="1.5" stroke-linecap="round" stroke-linejoin="round"/>
<path d="M12 5.86169V20.8617" stroke="#151515" stroke-width="1.5" stroke-linecap="round" stroke-linejoin="round"/>
<path d="M19 3.15173V8.3717L17 7.04169L15 8.3717V4.29169C16.31 3.77169 17.77 3.35173 19 3.15173Z" stroke="#151515" stroke-width="1.5" stroke-linecap="round" stroke-linejoin="round"/>
</svg>
