<svg width="22" height="22" viewBox="0 0 22 22" fill="none" xmlns="http://www.w3.org/2000/svg">
<path d="M17.0781 6.55381C17.1148 7.11297 17.069 7.74547 16.959 8.45131L16.2898 12.7505C15.7215 16.3346 14.0623 17.5446 10.4781 16.9855L6.17898 16.3071C4.94148 16.1146 3.98814 15.7846 3.29148 15.2896C1.96231 14.3638 1.57731 12.8421 1.94398 10.4955L2.62231 6.19631C3.19064 2.61214 4.84981 1.40214 8.43398 1.96131L12.7331 2.63964C15.6115 3.08881 16.959 4.26214 17.0781 6.55381Z" stroke="#6D737A" stroke-width="1.5" stroke-linecap="round" stroke-linejoin="round"/>
<path d="M18.7918 12.347L17.4168 16.4812C16.271 19.9279 14.4377 20.8445 10.991 19.6987L6.85685 18.3237C4.77602 17.6362 3.62102 16.6829 3.29102 15.2895C3.98768 15.7845 4.94102 16.1145 6.17852 16.307L10.4777 16.9854C14.0618 17.5445 15.721 16.3345 16.2893 12.7504L16.9585 8.45121C17.0685 7.74538 17.1143 7.11288 17.0777 6.55371C19.2685 7.71788 19.7452 9.47788 18.7918 12.347Z" stroke="#6D737A" stroke-width="1.5" stroke-linecap="round" stroke-linejoin="round"/>
<path d="M7.55398 8.23199C8.43488 8.23199 9.14898 7.51789 9.14898 6.63699C9.14898 5.7561 8.43488 5.04199 7.55398 5.04199C6.67309 5.04199 5.95898 5.7561 5.95898 6.63699C5.95898 7.51789 6.67309 8.23199 7.55398 8.23199Z" stroke="#6D737A" stroke-width="1.5" stroke-linecap="round" stroke-linejoin="round"/>
</svg>
