<svg width="24" height="25" viewBox="0 0 24 25" fill="none" xmlns="http://www.w3.org/2000/svg">
<circle cx="12" cy="12.3716" r="10" stroke="#6D737A" stroke-width="1.5"/>
<path d="M13.023 14.9317C10.7132 15.8556 9.55832 16.3175 8.89867 15.8693C8.74226 15.763 8.60736 15.6281 8.50108 15.4717C8.05282 14.812 8.51478 13.6572 9.43869 11.3474C9.63576 10.8547 9.73429 10.6084 9.90376 10.4151C9.94695 10.3659 9.99331 10.3195 10.0426 10.2763C10.2358 10.1068 10.4821 10.0083 10.9748 9.81125C13.2846 8.88734 14.4395 8.42538 15.0991 8.87364C15.2555 8.97992 15.3904 9.11482 15.4967 9.27122C15.945 9.93088 15.483 11.0858 14.5591 13.3955C14.362 13.8882 14.2635 14.1346 14.094 14.3278C14.0509 14.3771 14.0045 14.4234 13.9552 14.4666C13.762 14.6361 13.5157 14.7346 13.023 14.9317Z" stroke="#6D737A" stroke-width="1.5"/>
</svg>
