<svg width="24" height="25" viewBox="0 0 24 25" fill="none" xmlns="http://www.w3.org/2000/svg">
<path d="M16 2.37173H8C4.5 2.37173 3 4.37173 3 7.37173V17.3717C3 20.3717 4.5 22.3717 8 22.3717H16C19.5 22.3717 21 20.3717 21 17.3717V7.37173C21 4.37173 19.5 2.37173 16 2.37173ZM8 12.6217H12C12.41 12.6217 12.75 12.9617 12.75 13.3717C12.75 13.7817 12.41 14.1217 12 14.1217H8C7.59 14.1217 7.25 13.7817 7.25 13.3717C7.25 12.9617 7.59 12.6217 8 12.6217ZM16 18.1217H8C7.59 18.1217 7.25 17.7817 7.25 17.3717C7.25 16.9617 7.59 16.6217 8 16.6217H16C16.41 16.6217 16.75 16.9617 16.75 17.3717C16.75 17.7817 16.41 18.1217 16 18.1217ZM18.5 9.62173H16.5C14.98 9.62173 13.75 8.39173 13.75 6.87173V4.87173C13.75 4.46173 14.09 4.12173 14.5 4.12173C14.91 4.12173 15.25 4.46173 15.25 4.87173V6.87173C15.25 7.56173 15.81 8.12173 16.5 8.12173H18.5C18.91 8.12173 19.25 8.46173 19.25 8.87173C19.25 9.28173 18.91 9.62173 18.5 9.62173Z" fill="#151515"/>
</svg>
