<svg width="320" height="280" viewBox="0 0 320 280" fill="none" xmlns="http://www.w3.org/2000/svg">
<g clip-path="url(#clip0_1348_18461)">
<path opacity="0.2" d="M10.4102 146.495C10.4102 171.871 19.3046 194.994 33.9416 212.469C50.7331 232.524 75.0829 245.133 102.225 245.175C113.754 245.201 125.176 242.906 135.848 238.42C141.235 236.156 147.264 236.416 152.481 239.098C158.755 242.326 165.675 244.005 172.69 244C175.68 244 178.607 243.698 181.439 243.123C189.521 241.489 196.877 237.621 202.918 232.142C206.714 228.698 211.575 226.967 216.545 226.973H216.629C233.049 226.973 248.3 221.628 260.963 212.469C272.283 204.291 281.528 193.068 287.687 179.891C293.057 168.407 296.08 155.436 296.08 141.707C296.08 94.6196 260.506 56.4409 216.629 56.4409C212.156 56.4409 207.774 56.8467 203.499 57.6033C192.178 37.9358 171.906 24.825 148.781 24.825C139.313 24.8162 129.97 27.049 121.476 31.3504C113.596 35.321 106.59 40.9632 100.86 47.8393C81.3997 48.1723 63.4067 54.9946 48.6798 66.3799C25.4977 84.2919 10.4102 113.505 10.4102 146.496V146.495Z" fill="url(#paint0_linear_1348_18461)"/>
<path opacity="0.24" fill-rule="evenodd" clip-rule="evenodd" d="M88.3349 72.4479L88.8182 73.5662L88.8063 73.5717L88.77 73.5882L88.6224 73.6567C88.492 73.718 88.2986 73.8098 88.0463 73.9316L87.541 72.8231C87.7969 72.6994 87.9945 72.6058 88.129 72.5434L88.2813 72.4717L88.3206 72.4534L88.3349 72.4473V72.4479ZM84.3052 74.4543C84.8985 74.144 85.4365 73.8679 85.9121 73.628L86.437 74.7267C85.9662 74.9642 85.433 75.2378 84.845 75.545L84.3052 74.4543ZM81.1176 76.173C81.6711 75.8658 82.2007 75.5762 82.7036 75.3051L83.2565 76.3891C82.7578 76.6578 82.2329 76.9455 81.683 77.2503L81.1176 76.173ZM77.9788 77.9646C78.515 77.6506 79.0375 77.3482 79.544 77.0593L80.1213 78.1298C79.619 78.4163 79.1006 78.7162 78.5686 79.0284L77.9788 77.9646ZM74.865 79.8406C75.3929 79.5144 75.9112 79.1979 76.4195 78.8919L77.0206 79.9477C76.5165 80.2519 76.0017 80.5659 75.4786 80.8897L74.865 79.8406ZM71.8196 81.7748C72.332 81.4406 72.8391 81.1144 73.3402 80.7961L73.9651 81.8378C73.4688 82.1537 72.9653 82.4769 72.457 82.8086L71.8196 81.7748ZM68.8052 83.7953C69.3021 83.4532 69.801 83.1143 70.302 82.7786L70.9519 83.8039C70.4551 84.1369 69.9603 84.4731 69.4676 84.8126L68.8052 83.7953ZM65.8426 85.8953C66.3365 85.5348 66.8305 85.1804 67.3209 84.8328L67.9958 85.8403C67.5096 86.1855 67.0209 86.5362 66.5311 86.8937L65.8426 85.8953ZM62.9424 88.0744C63.4211 87.7033 63.9026 87.3361 64.3868 86.9726L65.0891 87.9611C64.613 88.3192 64.1357 88.6828 63.6584 89.0519L62.9424 88.0744ZM60.103 90.3452C60.5714 89.9584 61.0409 89.5764 61.5111 89.2006L62.2419 90.1671C61.7765 90.5392 61.3117 90.9169 60.8481 91.2994L60.103 90.3452ZM57.3349 92.7121C57.7902 92.3088 58.2479 91.9103 58.708 91.5173L59.4691 92.4587C59.0145 92.8474 58.5615 93.241 58.1116 93.6394L57.3349 92.7121ZM54.6508 95.1819C55.0907 94.7608 55.5346 94.3445 55.9816 93.9332L56.7749 94.8458C56.3333 95.2523 55.8953 95.663 55.4608 96.078L54.6508 95.1819ZM52.0637 97.7618C52.4858 97.322 52.9125 96.8869 53.3439 96.4568L54.1723 97.3364C53.7468 97.76 53.326 98.1884 52.9106 98.6218L52.0637 97.7618ZM49.5897 100.462C49.9909 100.002 50.3985 99.5466 50.8116 99.0962L51.6775 99.9353C51.271 100.379 50.8705 100.827 50.4759 101.279L49.5897 100.462ZM47.2514 103.291C47.6281 102.809 48.0126 102.332 48.4036 101.858L49.3106 102.651C48.9272 103.114 48.5503 103.583 48.1798 104.058L47.2514 103.291ZM45.0749 106.259C45.4228 105.752 45.7785 105.251 46.142 104.756L47.0919 105.494C46.7348 105.98 46.3866 106.47 46.048 106.964L45.0749 106.259ZM43.0943 109.371C43.4058 108.84 43.7266 108.316 44.0567 107.798L45.0523 108.469C44.7302 108.975 44.417 109.486 44.1132 110.003L43.0943 109.371ZM41.3446 112.64C41.6124 112.085 41.8933 111.534 42.1861 110.988L43.2288 111.579C42.945 112.108 42.6722 112.643 42.4105 113.184L41.3446 112.64ZM39.8775 116.057C40.0954 115.477 40.3269 114.901 40.5727 114.329L41.6618 114.824C41.4237 115.378 41.1988 115.936 40.9881 116.498L39.8775 116.057ZM38.745 119.612C38.9027 119.01 39.0771 118.411 39.2663 117.817L40.3971 118.199C40.2144 118.772 40.0467 119.349 39.8942 119.93L38.745 119.612ZM37.9993 123.28C38.0885 122.661 38.1962 122.045 38.3206 121.434L39.4859 121.684C39.3659 122.273 39.2627 122.865 39.1765 123.46L37.9993 123.28ZM37.7213 126.082C37.738 125.768 37.76 125.455 37.7862 125.142L38.9717 125.249C38.9467 125.548 38.9259 125.848 38.9098 126.15C38.8932 126.453 38.886 126.753 38.8878 127.049L37.6975 127.057C37.6957 126.735 37.7035 126.41 37.7213 126.082ZM38.2105 130.825C38.0405 130.207 37.9126 129.579 37.8279 128.943L39.0074 128.777C39.0854 129.364 39.2026 129.935 39.3556 130.491L38.2105 130.825ZM39.6972 134.313C39.3751 133.768 39.088 133.201 38.8378 132.618L39.9269 132.125C40.1543 132.655 40.4173 133.173 40.7149 133.678L39.6972 134.313ZM41.9451 137.294C41.5212 136.84 41.1202 136.365 40.7435 135.87L41.6826 135.117C42.0342 135.579 42.4087 136.023 42.8045 136.447L41.9451 137.294ZM44.6839 139.772C44.2043 139.401 43.738 139.013 43.2859 138.607L44.0691 137.686C44.4893 138.063 44.9333 138.432 45.3993 138.793L44.6839 139.772ZM47.7132 141.829C47.193 141.517 46.681 141.191 46.1777 140.851L46.8324 139.828C47.3177 140.156 47.8115 140.471 48.3131 140.772L47.7132 141.829ZM50.9098 143.557C50.3656 143.291 49.8267 143.015 49.2933 142.727L49.8462 141.643C50.3563 141.918 50.8818 142.187 51.4204 142.451L50.9098 143.557ZM54.2081 145.031C53.6427 144.799 53.088 144.562 52.5452 144.319L53.0184 143.197C53.5504 143.434 54.0938 143.666 54.6491 143.893L54.2081 145.031ZM229.691 143.443C229.836 143.505 230.047 143.598 230.315 143.723L229.822 144.837C229.578 144.723 229.332 144.614 229.083 144.51L229.047 144.495L229.039 144.492L229.037 144.491L229.249 143.92L229.461 143.348H229.462L229.463 143.349L229.467 143.35L229.479 143.355L229.524 143.373C229.562 143.388 229.618 143.412 229.691 143.443ZM57.5712 146.307C56.9999 146.106 56.4369 145.901 55.8828 145.691L56.2946 144.542C56.8392 144.748 57.3933 144.951 57.9569 145.149L57.5712 146.307ZM231.958 144.554C232.438 144.814 232.974 145.119 233.554 145.47L232.949 146.525C232.441 146.216 231.925 145.92 231.403 145.637L231.958 144.554ZM60.9808 147.429C60.4065 147.252 59.8393 147.072 59.2793 146.888L59.6417 145.722C60.194 145.903 60.7547 146.082 61.3224 146.257L60.9808 147.429ZM235.1 146.456C235.607 146.797 236.108 147.148 236.601 147.511L235.907 148.507C235.429 148.154 234.943 147.812 234.45 147.482L235.1 146.456ZM64.4255 148.426C63.85 148.27 63.2805 148.11 62.7174 147.947L63.0388 146.768C63.5971 146.93 64.1607 147.088 64.7302 147.243L64.4255 148.426ZM67.897 149.322C67.3155 149.18 66.7394 149.035 66.1681 148.889L66.4573 147.701C67.0239 147.847 67.5953 147.99 68.172 148.131L67.897 149.322ZM71.3887 150.134C70.8007 150.004 70.2163 149.872 69.6366 149.737L69.8985 148.543C70.4746 148.677 71.0548 148.808 71.6393 148.937L71.3887 150.134ZM238.063 148.641C238.54 149.026 239.007 149.422 239.466 149.829L238.688 150.756C238.243 150.361 237.79 149.977 237.328 149.603L238.063 148.641ZM74.884 150.874C74.2975 150.755 73.7114 150.634 73.126 150.51L73.3658 149.311C73.9449 149.434 74.5275 149.554 75.1137 149.673L74.884 150.874ZM78.3835 151.555C77.7973 151.445 77.2128 151.334 76.6314 151.221L76.8522 150.018C77.4312 150.13 78.0127 150.241 78.5965 150.35L78.3835 151.555ZM81.8972 152.188C81.3122 152.086 80.7289 151.983 80.1475 151.879L80.3528 150.673C80.9319 150.777 81.5133 150.88 82.0966 150.981L81.8972 152.188ZM240.82 151.086C241.262 151.516 241.695 151.958 242.118 152.409L241.259 153.258C240.85 152.82 240.431 152.392 240.002 151.975L240.82 151.086ZM85.4199 152.782C84.8313 152.686 84.2439 152.589 83.6588 152.49L83.8511 151.282C84.4349 151.38 85.0199 151.477 85.6068 151.573L85.4199 152.782ZM88.9426 153.343C88.3534 153.251 87.7654 153.159 87.1779 153.065L87.3601 151.856C87.9457 151.949 88.5319 152.041 89.1199 152.132L88.9426 153.343ZM92.4658 153.877C91.8784 153.789 91.2904 153.701 90.7036 153.613L90.8774 152.401C91.463 152.49 92.0492 152.578 92.636 152.665L92.4658 153.877ZM95.9944 154.391C95.4061 154.307 94.8179 154.222 94.2298 154.136L94.3971 152.924L96.1587 153.179L95.9944 154.391ZM99.5219 154.892C98.9345 154.809 98.3459 154.727 97.7573 154.643L97.9197 153.43C98.5077 153.513 99.0957 153.597 99.6826 153.679L99.5219 154.892ZM243.347 153.79C243.747 154.261 244.135 154.743 244.512 155.234L243.577 155.992C243.213 155.517 242.837 155.051 242.45 154.595L243.347 153.79ZM103.048 155.383L101.288 155.139L101.448 153.925L103.207 154.17L103.048 155.383ZM106.58 155.874L104.816 155.629L104.975 154.416L106.739 154.66L106.58 155.874ZM110.108 156.366L108.336 156.118L108.496 154.905L110.27 155.154L110.108 156.366ZM113.628 156.869L111.865 156.615L112.029 155.403C112.62 155.487 113.208 155.572 113.794 155.657L113.628 156.869ZM117.137 157.388C116.559 157.3 115.978 157.213 115.393 157.127L115.562 155.915C116.148 156.002 116.731 156.089 117.31 156.177L117.137 157.388ZM120.661 157.936C120.083 157.843 119.5 157.751 118.912 157.66L119.09 156.45C119.679 156.541 120.264 156.633 120.845 156.726L120.661 157.936ZM245.605 156.738C245.957 157.249 246.296 157.77 246.622 158.299L245.616 158.954C245.302 158.442 244.974 157.94 244.634 157.446L245.605 156.738ZM124.175 158.52C123.596 158.42 123.01 158.321 122.418 158.222L122.608 157.014C123.202 157.112 123.79 157.212 124.373 157.313L124.175 158.52ZM127.675 159.153C127.087 159.042 126.499 158.933 125.911 158.826L126.117 157.62C126.715 157.729 127.307 157.838 127.891 157.949L127.675 159.153ZM131.157 159.853C130.578 159.73 129.991 159.609 129.395 159.489L129.623 158.287C130.223 158.408 130.815 158.53 131.398 158.654L131.157 159.853ZM134.615 160.643C134.044 160.503 133.463 160.366 132.87 160.23L133.127 159.035C133.726 159.172 134.315 159.311 134.891 159.452L134.615 160.643ZM138.037 161.559C137.463 161.391 136.888 161.231 136.31 161.077L136.609 159.892C137.208 160.052 137.792 160.215 138.363 160.382L138.037 161.559ZM247.559 159.913C247.853 160.453 248.138 161.007 248.411 161.577L247.343 162.118C247.083 161.575 246.809 161.04 246.521 160.513L247.559 159.913ZM141.393 162.654C140.829 162.448 140.262 162.253 139.692 162.069L140.05 160.901C140.649 161.095 141.23 161.295 141.792 161.5L141.393 162.654ZM144.608 164.009C144.086 163.754 143.557 163.514 143.022 163.29L143.471 162.157C144.028 162.389 144.578 162.639 145.121 162.905L144.608 164.009ZM249.175 163.285C249.411 163.853 249.636 164.435 249.849 165.032L248.731 165.452C248.529 164.884 248.312 164.322 248.08 163.766L249.175 163.285ZM146.859 165.294C146.628 165.139 146.394 164.99 146.156 164.848L146.756 163.791C147.017 163.947 147.268 164.106 147.51 164.269C147.739 164.423 147.979 164.579 148.227 164.736L147.605 165.78C147.354 165.621 147.105 165.459 146.859 165.294ZM150.831 167.616C150.288 167.334 149.75 167.042 149.218 166.741L149.791 165.669C150.291 165.952 150.817 166.237 151.369 166.524L150.831 167.616ZM250.431 166.812C250.606 167.402 250.77 168.005 250.92 168.621L249.765 168.918C249.623 168.332 249.465 167.749 249.293 167.171L250.431 166.812ZM154.156 169.238C153.574 168.972 153.01 168.705 152.465 168.44L152.974 167.333C153.511 167.594 154.067 167.857 154.641 168.121L154.156 169.238ZM157.503 170.701C156.922 170.458 156.354 170.216 155.799 169.974L156.264 168.847C156.812 169.086 157.375 169.326 157.95 169.566L157.503 170.701ZM160.897 172.059C160.314 171.835 159.741 171.61 159.179 171.385L159.611 170.244C160.168 170.467 160.736 170.69 161.315 170.913L160.897 172.059ZM251.318 170.451C251.434 171.056 251.536 171.671 251.626 172.299L250.448 172.476C250.363 171.877 250.264 171.281 250.15 170.688L251.318 170.451ZM164.324 173.333C163.745 173.125 163.167 172.914 162.59 172.7L162.995 171.548C163.56 171.758 164.134 171.968 164.717 172.178L164.324 173.333ZM167.771 174.534C167.183 174.335 166.601 174.135 166.026 173.936L166.409 172.776C166.979 172.975 167.558 173.173 168.142 173.37L167.771 174.534ZM171.228 175.667C170.646 175.481 170.066 175.294 169.485 175.103L169.847 173.937C170.419 174.125 170.997 174.311 171.58 174.497L171.228 175.667ZM251.845 174.16C251.874 174.471 251.901 174.786 251.923 175.103C251.948 175.446 251.955 175.79 251.942 176.133L250.753 176.087C250.763 175.799 250.758 175.501 250.736 175.193C250.715 174.887 250.689 174.582 250.66 174.278L251.845 174.16ZM174.705 176.744C174.124 176.569 173.543 176.391 172.963 176.212L173.307 175.04C173.88 175.217 174.458 175.394 175.039 175.569L174.705 176.744ZM178.201 177.768C177.617 177.602 177.037 177.434 176.459 177.265L176.785 176.088C177.36 176.256 177.938 176.423 178.519 176.589L178.201 177.768ZM181.714 178.743C181.13 178.585 180.546 178.426 179.962 178.264L180.272 177.082C180.851 177.243 181.432 177.402 182.016 177.559L181.714 178.743ZM251.632 178.108C251.444 178.755 251.171 179.372 250.82 179.942L249.813 179.288C250.107 178.812 250.335 178.298 250.491 177.758L251.632 178.108ZM185.24 179.669C184.649 179.518 184.061 179.366 183.474 179.212L183.768 178.026C184.352 178.179 184.938 178.331 185.527 178.481L185.24 179.669ZM188.774 180.545C188.181 180.403 187.591 180.258 187.002 180.112L187.281 178.922C187.867 179.068 188.455 179.211 189.045 179.353L188.774 180.545ZM192.317 181.373C191.725 181.239 191.134 181.103 190.543 180.965L190.807 179.771C191.395 179.908 191.983 180.044 192.573 180.177L192.317 181.373ZM195.874 182.152C195.28 182.026 194.687 181.898 194.095 181.768L194.342 180.571C194.933 180.7 195.523 180.828 196.113 180.952L195.874 182.152ZM249.582 181.486C249.116 181.941 248.61 182.35 248.07 182.708L247.421 181.682C247.899 181.366 248.346 181.004 248.758 180.602L249.582 181.486ZM199.441 182.88C198.846 182.763 198.25 182.644 197.654 182.522L197.886 181.321C198.479 181.442 199.072 181.561 199.664 181.677L199.441 182.88ZM203.014 183.554C202.419 183.447 201.824 183.337 201.228 183.224L201.442 182.02C202.036 182.132 202.628 182.242 203.22 182.349L203.014 183.554ZM246.4 183.657C245.858 183.918 245.282 184.158 244.676 184.378L244.281 183.223C244.829 183.026 245.367 182.8 245.894 182.548L246.4 183.657ZM206.601 184.173C206.006 184.075 205.409 183.975 204.811 183.872L205.008 182.664C205.603 182.767 206.196 182.867 206.789 182.964L206.601 184.173ZM210.202 184.732C209.602 184.644 209.002 184.554 208.402 184.46L208.58 183.25C209.179 183.343 209.776 183.433 210.37 183.52L210.202 184.732ZM242.913 184.935C242.33 185.096 241.725 185.242 241.098 185.374L240.859 184.174C241.445 184.052 242.027 183.911 242.604 183.753L242.913 184.935ZM213.812 185.224C213.207 185.148 212.602 185.068 211.998 184.986L212.154 183.772C212.758 183.855 213.36 183.934 213.958 184.009L213.812 185.224ZM217.429 185.643C216.822 185.579 216.215 185.513 215.609 185.442L215.742 184.226C216.348 184.296 216.951 184.362 217.549 184.425L217.429 185.643ZM239.288 185.705C238.699 185.798 238.094 185.88 237.474 185.953L237.34 184.736C237.93 184.668 238.519 184.587 239.106 184.495L239.288 185.705ZM221.051 185.978C220.446 185.93 219.842 185.877 219.237 185.822L219.344 184.602C219.948 184.658 220.548 184.71 221.143 184.757L221.051 185.978ZM224.681 186.216C224.079 186.186 223.476 186.151 222.874 186.111L222.95 184.889C223.553 184.929 224.15 184.964 224.74 184.994L224.681 186.216ZM235.628 186.135C235.038 186.183 234.436 186.223 233.823 186.255L233.763 185.033C234.354 185.002 234.944 184.962 235.534 184.915L235.628 186.135ZM228.32 186.341C227.719 186.331 227.118 186.316 226.518 186.295L226.558 185.072C227.159 185.093 227.753 185.108 228.339 185.118L228.32 186.341ZM231.969 186.327C231.378 186.343 230.777 186.351 230.168 186.354L230.164 185.129C230.765 185.127 231.356 185.118 231.938 185.103L231.969 186.327Z" fill="#E72929"/>
<path d="M113.289 59.3438H88.5605L96.0862 64.0733L113.289 59.3438Z" fill="url(#paint1_linear_1348_18461)"/>
<path d="M113.289 59.3438L97.418 66.892L100.097 76.5108L113.289 59.3438Z" fill="url(#paint2_linear_1348_18461)"/>
<path d="M93.2207 71.1441L97.4171 66.892L113.288 59.3438L93.2207 71.1441Z" fill="url(#paint3_linear_1348_18461)"/>
<path d="M93.2207 71.1441L97.4171 66.892L113.288 59.3438L96.0857 64.0733L93.2207 71.1441Z" fill="#E72929"/>
<g clip-path="url(#clip1_1348_18461)">
<path d="M231.363 201.434H75.4571C72.1229 201.434 69.4102 198.721 69.4102 195.387V176.623H237.41V195.387C237.41 198.721 234.698 201.434 231.363 201.434Z" fill="#E6E6E6"/>
<path d="M173.588 198.295H133.83V226.694H173.588V198.295Z" fill="#E6E6E6"/>
<path d="M175.979 223.107H131.438V226.694H175.979V223.107Z" fill="#E6E6E6"/>
<path d="M237.261 184.544H69.4102V89.1497C69.4102 86.8616 71.2718 85 73.5599 85H233.111C235.399 85 237.261 86.8616 237.261 89.1497V184.544Z" fill="#3F3D56"/>
<path d="M233.225 89.3346H73.2964V179.313H233.225V89.3346Z" fill="white"/>
<path d="M104.269 142.72C105.493 141.713 107.007 141.525 107.65 142.301C108.294 143.077 107.823 144.522 106.599 145.529C106.115 145.938 105.54 146.226 104.922 146.369L99.6813 150.571L97.7534 148.08L103.124 144.202C103.381 143.624 103.774 143.116 104.269 142.72Z" fill="#FFB6B6"/>
<path d="M73.9787 152.201C73.9761 152.016 73.9778 150.394 75.183 149.37C76.5674 148.193 78.5209 148.669 79.2061 148.836C80.7889 149.222 80.9187 149.898 82.4051 150.593C85.1859 151.893 81.7016 151.228 83.3563 150.811C83.9291 150.667 92.1691 150.098 94.2201 148.84C98.2093 146.396 100.927 144.913 100.927 144.913L102.704 148.452C102.704 148.452 100.135 152.009 96.5187 154.645C92.8094 157.348 90.9548 158.7 88.1362 159.222C87.8935 159.267 81.924 160.282 77.1161 156.705C76.0194 155.889 74.0101 154.394 73.9787 152.201Z" fill="#E72929"/>
<path d="M79.4911 143.202C82.9096 143.202 85.6809 140.442 85.6809 137.038C85.6809 133.634 82.9096 130.874 79.4911 130.874C76.0725 130.874 73.3013 133.634 73.3013 137.038C73.3013 140.442 76.0725 143.202 79.4911 143.202Z" fill="#FFB6B6"/>
<path d="M127.968 178.448L121.593 171.951L118.302 175.369L123.052 181.599L127.762 182.135L127.968 178.448Z" fill="#FFB6B6"/>
<path d="M91.5671 166.264C91.94 166.294 93.1248 166.531 94.2574 165.91C95.0303 165.487 95.4266 164.857 95.5605 164.657C97.2215 162.173 103.597 158.299 109.318 158.061C110.614 158.007 111.466 158.157 112.242 158.559C113.341 159.129 113.78 159.947 115.174 161.861C115.937 162.908 116.782 163.895 117.554 164.936C122.074 171.027 123.788 171.506 123.613 173.459C123.419 175.626 121.072 177.681 119.512 177.444C118.873 177.347 118.626 176.905 117.772 176.009C115.27 173.384 114.235 173.869 112.453 171.858C110.373 169.51 110.645 167.563 109.56 167.488C108.554 167.419 108.126 169.079 105.977 171.285C104.994 172.295 104.294 172.758 102.161 174.231C93.8557 179.969 93.7231 180.372 92.047 180.83C91.3136 181.03 86.1085 182.451 84.2543 180.19C81.3527 176.651 88.2075 165.986 91.5671 166.264Z" fill="#2F2E41"/>
<path d="M126.019 179.916C126.487 179.707 127.036 179.462 127.212 178.898C127.331 178.517 127.263 178.046 127.016 177.721C126.731 177.346 126.31 177.297 126.327 177.231C126.353 177.13 127.349 177.169 128.443 177.554C128.649 177.627 129.584 177.967 130.773 178.891C131.726 179.632 131.598 179.781 132.195 180.208C134.029 181.519 135.749 180.485 136.742 181.715C137.125 182.189 137.288 182.863 137.127 183.408C136.803 184.502 135.229 184.878 134.369 185.073C132.297 185.541 130.729 185.159 129.091 184.884C123.522 183.949 120.393 184.8 119.975 183.516C119.895 183.273 120.024 183.293 120.454 181.509C120.877 179.748 120.863 179.264 121.224 179.123C121.768 178.911 122.133 179.876 123.501 180.207C124.714 180.5 125.715 180.052 126.019 179.916Z" fill="#2F2E41"/>
<path d="M116.634 199.705L115.023 190.764L110.373 191.752L110.79 199.563L114.385 202.641L116.634 199.705Z" fill="#FFB6B6"/>
<path d="M93.3861 169.269C93.6773 169.503 94.5244 170.361 95.8114 170.481C96.6897 170.563 97.3727 170.263 97.5964 170.172C100.372 169.046 107.831 169.405 112.7 172.407C113.802 173.087 114.424 173.688 114.838 174.454C115.426 175.541 115.328 176.463 115.403 178.827C115.443 180.12 115.585 181.408 115.638 182.701C115.943 190.269 117.091 191.624 115.845 193.142C114.462 194.826 111.361 195.215 110.204 194.146C109.73 193.709 109.775 193.204 109.574 191.986C108.984 188.414 107.854 188.237 107.513 185.577C107.116 182.471 108.439 181.012 107.584 180.343C106.79 179.723 105.5 180.858 102.478 181.482C101.095 181.767 100.255 181.759 97.6593 181.786C87.5511 181.889 87.214 182.149 85.569 181.59C84.8493 181.346 79.741 179.611 79.482 176.703C79.0766 172.152 90.763 167.16 93.3861 169.269Z" fill="#2F2E41"/>
<path d="M114.193 199.83C114.699 199.918 115.291 200.022 115.755 199.654C116.069 199.406 116.277 198.978 116.256 198.571C116.232 198.102 115.911 197.825 115.963 197.78C116.041 197.711 116.843 198.301 117.531 199.231C117.661 199.406 118.243 200.21 118.705 201.64C119.076 202.786 118.886 202.837 119.14 203.525C119.918 205.635 121.924 205.742 122.052 207.314C122.101 207.921 121.856 208.57 121.416 208.93C120.531 209.654 119.016 209.086 118.195 208.765C116.217 207.994 115.134 206.801 113.934 205.658C109.853 201.771 106.784 200.726 107.162 199.428C107.234 199.183 107.329 199.272 108.69 198.036C110.034 196.815 110.295 196.407 110.673 196.493C111.243 196.621 111 197.624 111.946 198.662C112.785 199.583 113.865 199.772 114.193 199.83Z" fill="#2F2E41"/>
<path d="M80.3344 138.216C80.5754 137.358 80.2727 137.045 80.5812 136.66C80.5812 136.66 80.7053 136.505 81.8152 136.086C81.4877 134.194 81.7329 133.874 81.7329 133.874C82.0155 133.506 82.5815 133.417 82.9669 133.465C83.7819 133.567 83.9262 134.3 84.4477 134.284C85.1681 134.261 86.0321 132.825 85.7639 131.581C85.5451 130.565 84.6019 129.811 84.3654 129.942C84.131 130.072 83.287 129.5 82.9669 129.615C82.7483 129.693 81.7194 129.589 81.4861 129.697C81.2313 129.814 80.5017 130.547 80.432 130.455C79.9472 129.813 79.9575 129.589 79.6763 129.451C79.1779 129.206 78.6361 129.659 77.7019 130.106C75.7797 131.027 75.2169 130.478 74.329 131.253C73.8805 131.645 73.64 132.393 73.1773 133.874C72.5302 135.946 72.2067 136.981 72.5192 137.97C72.8379 138.979 73.3072 138.759 74 140.182C74.7711 141.766 74.5053 142.687 75.234 143.049C75.7971 143.33 76.7021 143.151 77.0438 142.64C77.6288 141.764 76.1167 140.579 76.6325 139.199C76.9491 138.352 77.9257 137.71 78.5246 137.888C79.2018 138.091 79.2516 139.3 79.6763 139.281C80.0399 139.265 80.2924 138.366 80.3344 138.216Z" fill="#2F2E41"/>
<path d="M75.6453 144.114C76.9119 142.7 82.0713 144.164 82.5555 146.408C82.7547 147.331 82.0194 147.721 82.2265 148.784C82.5294 150.338 84.2442 150.232 85.5171 151.815C87.3242 154.061 85.4625 156.257 87.4915 160.006C87.925 160.808 88.2904 161.483 89.0545 162.136C90.8078 163.636 92.4395 163.122 93.3323 164.512C93.9999 165.552 93.7256 166.833 93.6614 167.133C93.3979 168.364 92.6838 168.664 92.1806 169.673C91.3434 171.351 92.2913 172.583 92.3451 174.588C92.4125 177.097 91.0737 180.574 88.3964 181.715C85.3885 182.997 81.7608 180.874 80.0053 178.766C78.9578 177.508 78.6537 176.348 78.1955 174.916C76.1474 168.515 74.9903 169.094 73.4241 164.02C71.6336 158.22 71.2816 151.425 73.4241 149.275C73.7081 148.99 74.4896 148.331 74.9871 147.145C75.6567 145.549 75.0783 144.747 75.6453 144.114Z" fill="#E72929"/>
<path d="M94.3613 177.036C95.3434 178.278 95.4956 179.79 94.7014 180.412C93.9072 181.035 92.4676 180.532 91.4854 179.289C91.0862 178.797 90.8109 178.218 90.6826 177.599L86.5884 172.282L88.7039 170.676L92.9007 175.861C93.4748 176.131 93.9757 176.534 94.3613 177.036Z" fill="#FFB6B6"/>
<path d="M79.3669 149.504C79.549 149.464 81.143 149.135 82.3962 150.1C83.8358 151.21 83.766 153.211 83.7416 153.913C83.6851 155.535 83.0469 155.8 82.6672 157.39C81.9569 160.366 83.3097 163.132 84.057 164.66C84.3157 165.189 85.1468 166.808 86.8012 168.55C90.0187 171.94 92.8896 173.724 92.8896 173.724L89.8054 176.454C89.8054 176.454 84.8928 174.963 81.564 171.976C78.1494 168.911 72.8984 158.069 71.8098 155.428C71.7161 155.201 73.044 158.898 75.5794 153.482C76.1577 152.246 77.2173 149.982 79.3669 149.504Z" fill="#E72929"/>
<path d="M158.302 146.961L154.62 145.224C156.13 147.323 157.431 150.601 158.128 153.209C159.308 150.78 161.21 147.807 163.092 146.031L159.2 147.028C161.598 135.324 170.618 126.922 180.947 126.922L181.094 126.499C170.305 126.499 160.751 134.785 158.302 146.961Z" fill="#3F3D56"/>
<path d="M175.251 164.794H151.984C150.997 164.794 150.194 163.994 150.194 163.011C150.194 162.029 150.997 161.229 151.984 161.229H175.251C176.238 161.229 177.041 162.029 177.041 163.011C177.041 163.994 176.238 164.794 175.251 164.794Z" fill="#E72929"/>
<path d="M206.211 164.794H182.944C181.957 164.794 181.154 163.994 181.154 163.011C181.154 162.029 181.957 161.229 182.944 161.229H206.211C207.198 161.229 208.001 162.029 208.001 163.011C208.001 163.994 207.198 164.794 206.211 164.794Z" fill="#E6E6E6"/>
<path d="M192.437 116.31H169.82C169.25 116.31 168.786 115.848 168.786 115.281C168.786 114.713 169.25 114.251 169.82 114.251H192.437C193.007 114.251 193.471 114.713 193.471 115.281C193.471 115.848 193.007 116.31 192.437 116.31Z" fill="#3F3D56"/>
<path d="M204.573 127.296H157.684C157.114 127.296 156.65 126.834 156.65 126.266C156.65 125.698 157.114 125.237 157.684 125.237H204.573C205.143 125.237 205.607 125.698 205.607 126.266C205.607 126.834 205.143 127.296 204.573 127.296Z" fill="#3F3D56"/>
<path d="M115.671 147.302C115.631 147.302 115.592 147.3 115.552 147.298C113.196 147.147 105.137 146.011 100.325 137.727C99.9287 137.045 100.007 136.178 100.519 135.57L109.43 124.998C109.794 124.565 110.357 124.316 110.927 124.323C111.322 124.332 112.254 124.431 112.436 125.148C113.506 129.379 118.026 134.353 123.462 135.013C124.013 135.08 124.455 135.569 124.645 136.322C124.793 136.908 124.656 137.513 124.27 137.98L117.131 146.612C116.769 147.05 116.237 147.302 115.671 147.302ZM110.893 124.748C110.458 124.748 110.034 124.943 109.757 125.271L100.847 135.843C100.449 136.315 100.388 136.986 100.695 137.514C105.4 145.616 113.277 146.726 115.579 146.873C116.049 146.904 116.501 146.705 116.801 146.341L123.94 137.71C124.239 137.348 124.345 136.88 124.231 136.426C124.119 135.981 123.844 135.488 123.41 135.435C117.795 134.754 113.126 129.619 112.021 125.251C111.932 124.898 111.393 124.76 110.919 124.749C110.91 124.748 110.902 124.748 110.893 124.748Z" fill="#3F3D56"/>
<path d="M105.726 138.075L112.15 131.553C112.589 131.107 111.901 130.42 111.462 130.867L105.037 137.39C104.598 137.835 105.286 138.522 105.726 138.075Z" fill="#E6E6E6"/>
<path d="M109.603 139.913C111.376 138.33 112.916 136.498 114.178 134.488C114.511 133.957 113.669 133.47 113.337 133.998C112.117 135.942 110.628 137.697 108.914 139.227C108.446 139.645 109.137 140.328 109.603 139.913Z" fill="#E6E6E6"/>
<path d="M113.097 142.113C114.712 140.333 116.086 138.345 117.168 136.202C117.448 135.645 116.609 135.154 116.327 135.712C115.282 137.783 113.969 139.707 112.409 141.428C111.99 141.89 112.676 142.578 113.097 142.113Z" fill="#E6E6E6"/>
<path d="M110.345 130.37C113.922 130.37 116.822 127.544 116.822 124.057C116.822 120.57 113.922 117.743 110.345 117.743C106.768 117.743 103.868 120.57 103.868 124.057C103.868 127.544 106.768 130.37 110.345 130.37Z" fill="#E72929"/>
<path d="M113.715 127.052C112.719 124.613 111.723 122.174 110.727 119.735C110.59 119.399 110.159 119.387 110.024 119.735C109.04 122.292 108.397 124.96 108.088 127.68C108.035 128.144 108.764 128.14 108.817 127.68C108.938 126.616 109.117 125.559 109.348 124.514C110.169 124.557 110.996 124.465 111.788 124.247C112.196 125.246 112.605 126.245 113.013 127.245C113.187 127.672 113.892 127.485 113.715 127.052ZM109.513 123.797C109.759 122.796 110.053 121.807 110.394 120.834L111.511 123.569C110.857 123.74 110.188 123.816 109.513 123.797Z" fill="white"/>
</g>
</g>
<defs>
<linearGradient id="paint0_linear_1348_18461" x1="5579.83" y1="15850.8" x2="18097.7" y2="420.129" gradientUnits="userSpaceOnUse">
<stop stop-color="#E72929"/>
<stop offset="1" stop-color="#E72929" stop-opacity="0"/>
</linearGradient>
<linearGradient id="paint1_linear_1348_18461" x1="88.5605" y1="59.3438" x2="88.5605" y2="76.5108" gradientUnits="userSpaceOnUse">
<stop stop-color="#FF7E7E"/>
<stop offset="1" stop-color="#E72929"/>
</linearGradient>
<linearGradient id="paint2_linear_1348_18461" x1="88.561" y1="59.3438" x2="88.561" y2="76.5108" gradientUnits="userSpaceOnUse">
<stop stop-color="#FF7E7E"/>
<stop offset="1" stop-color="#E72929"/>
</linearGradient>
<linearGradient id="paint3_linear_1348_18461" x1="88.5601" y1="59.3438" x2="88.5601" y2="76.5108" gradientUnits="userSpaceOnUse">
<stop stop-color="#FF7E7E"/>
<stop offset="1" stop-color="#E72929"/>
</linearGradient>
<clipPath id="clip0_1348_18461">
<rect width="285.67" height="232" fill="white" transform="translate(10.3301 24)"/>
</clipPath>
<clipPath id="clip1_1348_18461">
<rect width="168" height="141.694" fill="white" transform="translate(69.4102 85)"/>
</clipPath>
</defs>
</svg>
