<svg width="22" height="22" viewBox="0 0 22 22" fill="none" xmlns="http://www.w3.org/2000/svg">
<path d="M20.1673 9.16634V11.9163C20.1673 15.583 18.334 17.4163 14.6673 17.4163H14.209C13.9248 17.4163 13.6498 17.5538 13.4757 17.783L12.1007 19.6163C11.4957 20.423 10.5057 20.423 9.90065 19.6163L8.52565 17.783C8.37898 17.5813 8.03982 17.4163 7.79232 17.4163H7.33398C3.66732 17.4163 1.83398 16.4997 1.83398 11.9163V7.33301C1.83398 3.66634 3.66732 1.83301 7.33398 1.83301H12.834" stroke="#6D737A" stroke-width="1.5" stroke-miterlimit="10" stroke-linecap="round" stroke-linejoin="round"/>
<path d="M17.8757 6.41634C19.1413 6.41634 20.1673 5.39033 20.1673 4.12467C20.1673 2.85902 19.1413 1.83301 17.8757 1.83301C16.61 1.83301 15.584 2.85902 15.584 4.12467C15.584 5.39033 16.61 6.41634 17.8757 6.41634Z" stroke="#6D737A" stroke-width="1.5" stroke-linecap="round" stroke-linejoin="round"/>
<path d="M14.6642 10.0833H14.6725" stroke="#6D737A" stroke-width="2" stroke-linecap="round" stroke-linejoin="round"/>
<path d="M10.9963 10.0833H11.0045" stroke="#6D737A" stroke-width="2" stroke-linecap="round" stroke-linejoin="round"/>
<path d="M7.3283 10.0833H7.33653" stroke="#6D737A" stroke-width="2" stroke-linecap="round" stroke-linejoin="round"/>
</svg>
