<svg width="32" height="33" viewBox="0 0 32 33" fill="none" xmlns="http://www.w3.org/2000/svg">
<g clip-path="url(#clip0_1901_24434)">
<path d="M16.2331 32.3704C16.0175 32.3704 15.8379 32.1907 15.8379 31.9752V21.3405C15.8379 21.125 16.0175 20.9453 16.2331 20.9453C16.4486 20.9453 16.6283 21.125 16.6283 21.3405V31.9752C16.6283 32.1907 16.4486 32.3704 16.2331 32.3704Z" fill="#C42126"/>
<path d="M16.2331 11.7962C16.0175 11.7962 15.8379 11.6166 15.8379 11.401V0.766302C15.8379 0.550734 16.0175 0.371094 16.2331 0.371094C16.4486 0.371094 16.6283 0.550734 16.6283 0.766302V11.401C16.6283 11.6166 16.4486 11.7962 16.2331 11.7962Z" fill="#C42126"/>
<path d="M31.9934 16.4186C31.9934 16.6342 31.8138 16.8138 31.5982 16.8138H20.9636C20.748 16.8138 20.5684 16.6342 20.5684 16.4186C20.5684 16.2031 20.748 16.0234 20.9636 16.0234H31.5982C31.8138 16.0234 31.9934 16.2031 31.9934 16.4186Z" fill="#C42126"/>
<path d="M11.4251 16.4186C11.4251 16.6342 11.2455 16.8138 11.0299 16.8138H0.395206C0.179637 16.8138 0 16.6342 0 16.4186C0 16.2031 0.179637 16.0234 0.395206 16.0234H11.0299C11.2455 16.0234 11.4251 16.2031 11.4251 16.4186Z" fill="#C42126"/>
<path d="M16.2257 19.8322C18.1107 19.8322 19.6389 18.3041 19.6389 16.419C19.6389 14.534 18.1107 13.0059 16.2257 13.0059C14.3407 13.0059 12.8125 14.534 12.8125 16.419C12.8125 18.3041 14.3407 19.8322 16.2257 19.8322Z" fill="#C42126"/>
<path d="M17.541 10.2628C19.9242 10.7777 21.7925 12.646 22.3075 15.0172H24.8104C24.2356 11.2687 21.2895 8.32264 17.541 7.75977V10.2628Z" fill="#C42126"/>
<path d="M10.1495 15.029C10.6645 12.6577 12.5447 10.7775 14.9159 10.2745V7.77148C11.1674 8.34634 8.22134 11.2924 7.64648 15.029H10.1495Z" fill="#C42126"/>
<path d="M14.922 22.419C12.5388 21.9041 10.6586 20.0238 10.1436 17.6406H7.64062C8.2035 21.4011 11.1616 24.3471 14.91 24.922V22.419H14.922Z" fill="#C42126"/>
<path d="M22.3194 17.6406C21.8045 20.0238 19.9362 21.9041 17.541 22.419V24.922C21.2895 24.3471 24.2476 21.4011 24.8104 17.6406H22.3075H22.3194Z" fill="#C42126"/>
<path d="M4.89947 15.0308C5.51025 9.78531 9.6779 5.61767 14.9234 5.00688V2.50391C8.30066 3.12665 3.01924 8.40808 2.39648 15.0308H4.89947Z" fill="#C42126"/>
<path d="M17.5449 5.00688C22.7904 5.60569 26.9701 9.77331 27.5688 15.0308H30.0719C29.4491 8.40808 24.1677 3.12665 17.5449 2.50391V5.00688Z" fill="#C42126"/>
<path d="M14.9295 27.6765C9.672 27.0778 5.49241 22.8981 4.89361 17.6406H2.39062C3.01338 24.2754 8.2948 29.5568 14.9295 30.1796V27.6765Z" fill="#C42126"/>
<path d="M27.5727 17.6406C26.9739 22.8981 22.7943 27.0778 17.5488 27.6765V30.1796C24.1715 29.5568 29.4649 24.2634 30.0877 17.6406H27.5847H27.5727Z" fill="#C42126"/>
</g>
<defs>
<clipPath id="clip0_1901_24434">
<rect width="32" height="32" fill="white" transform="translate(0 0.371094)"/>
</clipPath>
</defs>
</svg>
