<svg width="24" height="24" viewBox="0 0 24 24" fill="none" xmlns="http://www.w3.org/2000/svg">
<path d="M6.67 14H4C2.9 14 2 14.9 2 16V21C2 21.55 2.45 22 3 22H6.67C7.22 22 7.67 21.55 7.67 21V15C7.67 14.45 7.22 14 6.67 14Z" fill="#E72929"/>
<path d="M13.3302 10H10.6602C9.56016 10 8.66016 10.9 8.66016 12V21C8.66016 21.55 9.11016 22 9.66016 22H14.3302C14.8802 22 15.3302 21.55 15.3302 21V12C15.3302 10.9 14.4402 10 13.3302 10Z" fill="#E72929"/>
<path d="M19.9981 17H17.3281C16.7781 17 16.3281 17.45 16.3281 18V21C16.3281 21.55 16.7781 22 17.3281 22H20.9981C21.5481 22 21.9981 21.55 21.9981 21V19C21.9981 17.9 21.0981 17 19.9981 17Z" fill="#E72929"/>
<path d="M15.0095 4.85C15.3195 4.54 15.4395 4.17 15.3395 3.85C15.2395 3.53 14.9295 3.3 14.4895 3.23L13.5295 3.07C13.4895 3.07 13.3995 3 13.3795 2.96L12.8495 1.9C12.4495 1.09 11.5395 1.09 11.1395 1.9L10.6095 2.96C10.5995 3 10.5095 3.07 10.4695 3.07L9.50945 3.23C9.06945 3.3 8.76945 3.53 8.65945 3.85C8.55945 4.17 8.67945 4.54 8.98945 4.85L9.72945 5.6C9.76945 5.63 9.79945 5.75 9.78945 5.79L9.57945 6.71C9.41945 7.4 9.67945 7.71 9.84945 7.83C10.0195 7.95 10.3895 8.11 10.9995 7.75L11.8995 7.22C11.9395 7.19 12.0695 7.19 12.1095 7.22L12.9995 7.75C13.2795 7.92 13.5095 7.97 13.6895 7.97C13.8995 7.97 14.0495 7.89 14.1395 7.83C14.3095 7.71 14.5695 7.4 14.4095 6.71L14.1995 5.79C14.1895 5.74 14.2195 5.63 14.2595 5.6L15.0095 4.85Z" fill="#E72929"/>
</svg>
