<svg
        width="60"
        height="60"
        viewBox="0 0 60 60"
        fill="none"
        xmlns="http://www.w3.org/2000/svg"
      >
        <rect width="60" height="60" rx="8" fill="white" />
        <g clip-path="url(#clip0_160_772)">
          <path
            d="M10 36.558C10.1556 35.7852 10.3229 35.0152 10.4658 34.2404C10.9892 31.4024 11.499 28.5623 12.0245 25.7253C12.2231 24.6521 12.9785 24.0025 14.0665 23.9966C16.683 23.9829 19.3004 23.98 21.9159 24.0064C22.3033 24.0103 22.7182 24.1365 23.0695 24.3087C25.636 25.5687 28.2055 26.8258 30.7358 28.1563C31.2994 28.4528 31.7388 28.4743 32.319 28.305C36.0352 27.2172 39.7632 26.1684 43.4853 25.1011C43.8493 24.9964 44.1996 24.9436 44.5333 25.1676C44.8611 25.3877 45.047 25.7008 44.9863 26.097C44.9188 26.5421 44.6615 26.8474 44.2094 26.9765C42.5969 27.4344 40.9863 27.8981 39.3748 28.3589C37.0382 29.027 34.7035 29.7011 32.364 30.3556C32.0871 30.4329 31.9765 30.5444 32 30.832C32.0245 31.1421 32.0078 31.4562 32.0049 31.7683C31.9892 33.3913 30.8503 34.2727 29.272 33.8785C27.6703 33.4793 26.0705 33.0733 24.4697 32.6712C24.2436 32.6145 24.0166 32.5646 23.7436 32.5C23.6693 33.131 23.593 33.7474 23.5245 34.3637C23.1634 37.595 22.8053 40.8274 22.4442 44.0587C22.2867 45.4675 22.1517 46.8792 21.9599 48.283C21.817 49.323 21.0166 49.9784 19.9511 49.9882C18.6751 50.0009 17.3992 49.997 16.1243 49.9902C14.8601 49.9824 14.0793 49.186 13.9814 47.8917C13.7632 44.9852 13.5205 42.0816 13.2877 39.176C13.2838 39.1261 13.2691 39.0772 13.2495 38.9715C11.8434 39.086 10.4902 39.04 10.001 37.3377C10 37.0785 10 36.8183 10 36.558ZM17.0049 26.0256C15.9726 26.0256 14.9892 26.0256 13.9961 26.0256C13.3307 29.6835 12.6693 33.3198 12.001 37.0002C12.9824 37.0002 13.8914 37.0061 14.8014 36.9963C15.0382 36.9934 15.1419 37.0482 15.1614 37.3133C15.3914 40.3617 15.6331 43.4091 15.8748 46.4575C15.9149 46.9584 15.9648 47.4583 16.0098 47.9602C17.364 47.9602 18.6722 47.9602 20.0029 47.9602C20.6703 41.9642 21.3346 35.9896 22.002 29.9985C24.7035 30.6725 27.3327 31.328 30.001 31.9933C30.001 31.3985 29.9843 30.8653 30.0078 30.3341C30.0196 30.068 29.9198 29.9476 29.6908 29.8351C27.6057 28.803 25.5069 27.7944 23.453 26.7026C22.4804 26.186 21.5108 25.8867 20.409 25.9953C19.9511 26.0403 19.4843 26.0031 18.9951 26.0031C18.9951 26.2046 18.9951 26.3455 18.9951 26.4874C18.9951 28.3227 18.999 30.158 18.9922 31.9923C18.9892 32.7064 18.4658 33.1663 17.8112 33.0528C17.317 32.9677 17.0078 32.545 17.0059 31.9248C17.002 30.1159 17.0039 28.307 17.0039 26.4971C17.0049 26.3445 17.0049 26.1919 17.0049 26.0256Z"
            fill="#3FAFC6"
          />
          <path
            d="M18.6721 10C18.8707 10.0479 19.0693 10.0969 19.2689 10.1428C22.1906 10.8061 24.085 13.3028 23.9832 16.359C23.8922 19.1002 21.7024 21.4882 18.8697 21.9324C15.2503 22.5008 11.8991 19.5414 12.0126 15.8786C12.1055 12.887 14.1907 10.5371 17.1672 10.0685C17.2278 10.0587 17.2856 10.0235 17.3443 10.001C17.7865 10 18.2288 10 18.6721 10ZM17.9734 19.9973C20.1633 20.009 21.9734 18.2236 21.9998 16.0264C22.0263 13.8506 20.221 12.0261 18.0263 12.0085C15.8394 11.9909 14.0175 13.7841 13.9979 15.9745C13.9783 18.1444 15.7983 19.9856 17.9734 19.9973Z"
            fill="#3FAFC6"
          />
          <path
            d="M38.9931 42.7684C38.9931 44.7856 38.9989 46.8029 38.9852 48.8202C38.9833 49.055 38.9236 49.3132 38.813 49.5196C38.6095 49.8973 38.1623 50.0626 37.7788 49.9658C37.3688 49.8621 37.0547 49.5001 37.0156 49.0784C37.0028 48.9366 37.0038 48.7928 37.0038 48.649C37.0028 46.8137 37.0038 44.9784 37.0038 43.1431C37.0038 43.0178 37.0038 42.8926 37.0038 42.7664C36.9774 42.7556 36.95 42.7459 36.9236 42.7351C36.8541 42.8486 36.7846 42.9621 36.7161 43.0765C35.4715 45.1505 34.2318 47.2275 32.9745 49.2937C32.8326 49.5265 32.6183 49.7466 32.3854 49.8836C32.0263 50.0939 31.6535 50.0049 31.3385 49.7329C31.0518 49.4844 30.9295 49.0188 31.0655 48.6636C31.1251 48.5071 31.2142 48.3613 31.3013 48.2165C32.859 45.6172 34.4187 43.0198 35.9764 40.4204C36.0479 40.3021 36.1115 40.1778 36.2142 39.9939C36.0205 39.9939 35.8844 39.9939 35.7484 39.9939C33.2484 39.9939 30.7494 39.9949 28.2494 39.9939C26.8032 39.9929 26.0087 39.1956 26.0058 37.7457C26.0048 36.8887 26.0058 36.0317 26.0058 35.1249C26.6388 35.2794 27.2308 35.4135 27.813 35.5807C27.8972 35.6052 27.9843 35.7911 27.9862 35.9046C28.0028 36.5786 27.994 37.2536 27.994 37.958C34.6633 37.958 41.2954 37.958 47.9608 37.958C47.9608 32.6625 47.9608 27.362 47.9608 22.0322C41.3267 22.0322 34.6936 22.0322 28.0116 22.0322C28.0116 22.8324 28.0116 23.6317 28.0116 24.5288C27.3238 24.1854 26.7113 23.8871 26.1085 23.5691C26.0449 23.5358 26.0116 23.394 26.0107 23.3011C26.0019 22.8461 25.997 22.3893 26.0126 21.9344C26.0479 20.915 26.8032 20.1157 27.8199 20.013C27.9882 19.9963 28.1574 19.9993 28.3267 19.9993C34.7709 19.9983 41.2152 19.9983 47.6594 19.9993C49.2328 19.9993 49.9989 20.7702 49.9989 22.3521C49.9989 27.4677 49.9989 32.5832 49.9989 37.6988C49.9989 39.1985 49.2093 39.9939 47.7181 39.9949C45.2318 39.9958 42.7445 39.9949 40.2582 39.9949C40.1193 39.9949 39.9803 39.9949 39.7817 39.9949C39.8854 40.1788 39.9569 40.3128 40.0351 40.4419C41.6144 43.0736 43.1946 45.7043 44.7719 48.3369C45.1095 48.9004 45.043 49.4424 44.6115 49.773C44.1222 50.1477 43.4882 50.0303 43.1281 49.4727C42.8101 48.9816 42.5205 48.4719 42.2201 47.971C41.2435 46.3431 40.267 44.7142 39.2895 43.0863C39.2181 42.9679 39.1437 42.8515 39.0713 42.7351C39.0459 42.7459 39.0195 42.7576 38.9931 42.7684Z"
            fill="#3FAFC6"
          />
        </g>
        <defs>
          <clipPath id="clip0_160_772">
            <rect
              width="40"
              height="40"
              fill="white"
              transform="translate(10 10)"
            />
          </clipPath>
        </defs>
      </svg>