<svg width="24" height="25" viewBox="0 0 24 25" fill="none" xmlns="http://www.w3.org/2000/svg">
<path d="M12 7.07251V10.4025" stroke="#6D737A" stroke-width="1.5" stroke-miterlimit="10" stroke-linecap="round"/>
<path d="M12.0199 2.63257C8.3399 2.63257 5.3599 5.61257 5.3599 9.29257V11.3926C5.3599 12.0726 5.0799 13.0926 4.7299 13.6726L3.4599 15.7926C2.6799 17.1026 3.2199 18.5626 4.6599 19.0426C9.4399 20.6326 14.6099 20.6326 19.3899 19.0426C20.7399 18.5926 21.3199 17.0126 20.5899 15.7926L19.3199 13.6726C18.9699 13.0926 18.6899 12.0626 18.6899 11.3926V9.29257C18.6799 5.63257 15.6799 2.63257 12.0199 2.63257Z" stroke="#6D737A" stroke-width="1.5" stroke-miterlimit="10" stroke-linecap="round"/>
<path d="M15.3299 19.4526C15.3299 21.2826 13.8299 22.7826 11.9999 22.7826C11.0899 22.7826 10.2499 22.4026 9.64992 21.8026C9.04992 21.2026 8.66992 20.3626 8.66992 19.4526" stroke="#6D737A" stroke-width="1.5" stroke-miterlimit="10"/>
</svg>
