<svg width="24" height="25" viewBox="0 0 24 25" fill="none" xmlns="http://www.w3.org/2000/svg">
<path d="M19.0598 19.1699L16.9198 14.8999L14.7798 19.1699" stroke="#6D737A" stroke-width="1.5" stroke-linecap="round" stroke-linejoin="round"/>
<path d="M15.1699 18.4099H18.6899" stroke="#6D737A" stroke-width="1.5" stroke-linecap="round" stroke-linejoin="round"/>
<path d="M16.9198 22.5001C14.1198 22.5001 11.8398 20.23 11.8398 17.42C11.8398 14.62 14.1098 12.3401 16.9198 12.3401C19.7198 12.3401 21.9998 14.61 21.9998 17.42C21.9998 20.23 19.7298 22.5001 16.9198 22.5001Z" stroke="#6D737A" stroke-width="1.5" stroke-linecap="round" stroke-linejoin="round"/>
<path d="M5.02 2.5H8.94C11.01 2.5 12.01 3.50002 11.96 5.52002V9.44C12.01 11.51 11.01 12.51 8.94 12.46H5.02C3 12.5 2 11.5 2 9.42999V5.51001C2 3.50001 3 2.5 5.02 2.5Z" stroke="#6D737A" stroke-width="1.5" stroke-linecap="round" stroke-linejoin="round"/>
<path d="M9.0097 6.34985H4.94971" stroke="#6D737A" stroke-width="1.5" stroke-linecap="round" stroke-linejoin="round"/>
<path d="M6.96973 5.66992V6.34991" stroke="#6D737A" stroke-width="1.5" stroke-linecap="round" stroke-linejoin="round"/>
<path d="M7.98994 6.33984C7.98994 8.08984 6.61994 9.50983 4.93994 9.50983" stroke="#6D737A" stroke-width="1.5" stroke-linecap="round" stroke-linejoin="round"/>
<path d="M9.01015 9.51001C8.28015 9.51001 7.62016 9.12 7.16016 8.5" stroke="#6D737A" stroke-width="1.5" stroke-linecap="round" stroke-linejoin="round"/>
<path d="M2 15.5C2 19.37 5.13 22.5 9 22.5L7.95 20.75" stroke="#6D737A" stroke-width="1.5" stroke-linecap="round" stroke-linejoin="round"/>
<path d="M22 9.5C22 5.63 18.87 2.5 15 2.5L16.05 4.25" stroke="#6D737A" stroke-width="1.5" stroke-linecap="round" stroke-linejoin="round"/>
</svg>
